<svg xmlns="http://www.w3.org/2000/svg" xmlns:xlink="http://www.w3.org/1999/xlink" viewBox="0 0 139.5 202.02"><defs><style>.cls-1{fill:url(#Безымянный_градиент_225);}.cls-2{fill:url(#Безымянный_градиент_225-2);}.cls-3{fill:url(#Безымянный_градиент_225-3);}.cls-4{fill:url(#Безымянный_градиент_225-4);}.cls-5{fill:url(#Безымянный_градиент_225-5);}.cls-6{fill:url(#Безымянный_градиент_225-6);}.cls-7{fill:url(#Безымянный_градиент_225-7);}.cls-8{fill:url(#Безымянный_градиент_225-8);}.cls-9{fill:url(#Безымянный_градиент_225-9);}.cls-10{fill:url(#Безымянный_градиент_225-10);}.cls-11{fill:url(#Безымянный_градиент_225-11);}.cls-12{fill:url(#Безымянный_градиент_225-12);}.cls-13{fill:url(#Безымянный_градиент_225-13);}.cls-14{fill:url(#Безымянный_градиент_225-14);}.cls-15{fill:url(#Безымянный_градиент_225-15);}.cls-16{fill:url(#Безымянный_градиент_225-16);}.cls-17{fill:url(#Безымянный_градиент_225-17);}.cls-18{fill:url(#Безымянный_градиент_225-18);}.cls-19{fill:url(#Безымянный_градиент_225-19);}.cls-20{fill:url(#Безымянный_градиент_225-20);}.cls-21{fill:url(#Безымянный_градиент_225-21);}.cls-22{fill:url(#Безымянный_градиент_225-22);}.cls-23{fill:url(#Безымянный_градиент_225-23);}.cls-24{fill:url(#Безымянный_градиент_225-24);}.cls-25{fill:url(#Безымянный_градиент_225-25);}.cls-26{fill:url(#Безымянный_градиент_225-26);}.cls-27{fill:url(#Безымянный_градиент_225-27);}.cls-28{fill:url(#Безымянный_градиент_225-28);}.cls-29{fill:url(#Безымянный_градиент_225-29);}.cls-30{fill:url(#Безымянный_градиент_225-30);}.cls-31{fill:url(#Безымянный_градиент_225-31);}.cls-32{fill:url(#Безымянный_градиент_225-32);}.cls-33{fill:url(#Безымянный_градиент_225-33);}.cls-34{fill:url(#Безымянный_градиент_225-34);}.cls-35{fill:url(#Безымянный_градиент_225-35);}.cls-36{fill:url(#Безымянный_градиент_225-36);}.cls-37{fill:url(#Безымянный_градиент_225-37);}.cls-38{fill:url(#Безымянный_градиент_225-38);}.cls-39{fill:url(#Безымянный_градиент_225-39);}.cls-40{fill:url(#Безымянный_градиент_225-40);}.cls-41{fill:url(#Безымянный_градиент_225-41);}.cls-42{fill:url(#Безымянный_градиент_225-42);}.cls-43{fill:url(#Безымянный_градиент_225-43);}.cls-44{fill:url(#Безымянный_градиент_225-44);}.cls-45{fill:url(#Безымянный_градиент_225-45);}.cls-46{fill:url(#Безымянный_градиент_225-46);}.cls-47{fill:url(#Безымянный_градиент_225-47);}.cls-48{fill:url(#Безымянный_градиент_225-48);}.cls-49{fill:url(#Безымянный_градиент_225-49);}.cls-50{fill:url(#Безымянный_градиент_225-50);}.cls-51{fill:url(#Безымянный_градиент_225-51);}.cls-52{fill:url(#Безымянный_градиент_225-52);}.cls-53{fill:url(#Безымянный_градиент_225-53);}.cls-54{fill:url(#Безымянный_градиент_225-54);}.cls-55{fill:url(#Безымянный_градиент_225-55);}.cls-56{fill:url(#Безымянный_градиент_225-56);}.cls-57{fill:url(#Безымянный_градиент_225-57);}.cls-58{fill:url(#Безымянный_градиент_225-58);}.cls-59{fill:url(#Безымянный_градиент_225-59);}.cls-60{fill:url(#Безымянный_градиент_225-60);}.cls-61{fill:url(#Безымянный_градиент_225-61);}.cls-62{fill:url(#Безымянный_градиент_225-62);}.cls-63{fill:url(#Безымянный_градиент_225-63);}.cls-64{fill:url(#Безымянный_градиент_225-64);}.cls-65{fill:url(#Безымянный_градиент_225-65);}.cls-66{fill:url(#Безымянный_градиент_225-66);}.cls-67{fill:url(#Безымянный_градиент_225-67);}.cls-68{fill:url(#Безымянный_градиент_225-68);}.cls-69{fill:url(#Безымянный_градиент_225-69);}.cls-70{fill:url(#Безымянный_градиент_225-70);}.cls-71{fill:url(#Безымянный_градиент_225-71);}.cls-72{fill:url(#Безымянный_градиент_225-72);}.cls-73{fill:url(#Безымянный_градиент_225-73);}.cls-74{fill:url(#Безымянный_градиент_225-74);}.cls-75{fill:url(#Безымянный_градиент_225-75);}.cls-76{fill:url(#Безымянный_градиент_225-76);}.cls-77{fill:url(#Безымянный_градиент_225-77);}.cls-78{fill:url(#Безымянный_градиент_225-78);}.cls-79{fill:url(#Безымянный_градиент_225-79);}.cls-80{fill:url(#Безымянный_градиент_225-80);}.cls-81{fill:url(#Безымянный_градиент_225-81);}.cls-82{fill:url(#Безымянный_градиент_225-82);}.cls-83{fill:url(#Безымянный_градиент_225-83);}.cls-84{fill:url(#Безымянный_градиент_225-84);}.cls-85{fill:url(#Безымянный_градиент_225-85);}.cls-86{fill:url(#Безымянный_градиент_225-86);}.cls-87{fill:url(#Безымянный_градиент_225-87);}.cls-88{fill:url(#Безымянный_градиент_225-88);}.cls-89{fill:url(#Безымянный_градиент_225-89);}.cls-90{fill:url(#Безымянный_градиент_225-90);}.cls-91{fill:url(#Безымянный_градиент_225-91);}.cls-92{fill:url(#Безымянный_градиент_225-92);}.cls-93{fill:url(#Безымянный_градиент_225-93);}.cls-94{fill:url(#Безымянный_градиент_225-94);}.cls-95{fill:url(#Безымянный_градиент_225-95);}.cls-96{fill:url(#Безымянный_градиент_225-96);}.cls-97{fill:url(#Безымянный_градиент_225-97);}.cls-98{fill:url(#Безымянный_градиент_225-98);}.cls-99{fill:url(#Безымянный_градиент_225-99);}.cls-100{fill:url(#Безымянный_градиент_225-100);}.cls-101{fill:url(#Безымянный_градиент_225-101);}.cls-102{fill:url(#Безымянный_градиент_225-102);}.cls-103{fill:url(#Безымянный_градиент_225-103);}.cls-104{fill:url(#Безымянный_градиент_225-104);}.cls-105{fill:url(#Безымянный_градиент_225-105);}.cls-106{fill:url(#Безымянный_градиент_225-106);}.cls-107{fill:url(#Безымянный_градиент_225-107);}.cls-108{fill:url(#Безымянный_градиент_225-108);}.cls-109{fill:url(#Безымянный_градиент_225-109);}.cls-110{fill:url(#Безымянный_градиент_225-110);}.cls-111{fill:url(#Безымянный_градиент_225-111);}.cls-112{fill:url(#Безымянный_градиент_225-112);}.cls-113{fill:url(#Безымянный_градиент_225-113);}.cls-114{fill:url(#Безымянный_градиент_225-114);}.cls-115{fill:url(#Безымянный_градиент_225-115);}.cls-116{fill:url(#Безымянный_градиент_225-116);}.cls-117{fill:url(#Безымянный_градиент_225-117);}.cls-118{fill:url(#Безымянный_градиент_225-118);}.cls-119{fill:url(#Безымянный_градиент_225-119);}.cls-120{fill:url(#Безымянный_градиент_225-120);}.cls-121{fill:url(#Безымянный_градиент_225-121);}.cls-122{fill:url(#Безымянный_градиент_225-122);}.cls-123{fill:url(#Безымянный_градиент_225-123);}.cls-124{fill:url(#Безымянный_градиент_225-124);}.cls-125{fill:url(#Безымянный_градиент_225-125);}.cls-126{fill:url(#Безымянный_градиент_225-126);}.cls-127{fill:url(#Безымянный_градиент_225-127);}</style><linearGradient id="Безымянный_градиент_225" x1="39.77" y1="408.73" x2="97.58" y2="380.67" gradientTransform="matrix(1, 0, 0, -1, 0, 445.11)" gradientUnits="userSpaceOnUse"><stop offset="0" stop-color="#613508"/><stop offset="0.21" stop-color="#c27204"/><stop offset="0.44" stop-color="#ffe1a3"/><stop offset="0.64" stop-color="#c27204"/><stop offset="1" stop-color="#944603"/></linearGradient><linearGradient id="Безымянный_градиент_225-2" x1="33.05" y1="357.17" x2="109.42" y2="382.01" xlink:href="#Безымянный_градиент_225"/><linearGradient id="Безымянный_градиент_225-3" x1="18.02" y1="460.88" x2="98.99" y2="254.16" xlink:href="#Безымянный_градиент_225"/><linearGradient id="Безымянный_градиент_225-4" x1="-7.67" y1="350.23" x2="132.5" y2="290.42" xlink:href="#Безымянный_градиент_225"/><linearGradient id="Безымянный_градиент_225-5" x1="-21.89" y1="316.9" x2="118.27" y2="257.09" xlink:href="#Безымянный_градиент_225"/><linearGradient id="Безымянный_градиент_225-6" x1="10.36" y1="261.15" x2="126.9" y2="280.01" xlink:href="#Безымянный_градиент_225"/><linearGradient id="Безымянный_градиент_225-7" x1="-3.29" y1="407.45" x2="122.46" y2="393.75" xlink:href="#Безымянный_градиент_225"/><linearGradient id="Безымянный_градиент_225-8" x1="13.22" y1="399.17" x2="153.38" y2="339.36" xlink:href="#Безымянный_градиент_225"/><linearGradient id="Безымянный_градиент_225-9" x1="-7.91" y1="365.04" x2="117.84" y2="351.35" xlink:href="#Безымянный_градиент_225"/><linearGradient id="Безымянный_градиент_225-10" x1="-13.2" y1="316.46" x2="112.55" y2="302.76" xlink:href="#Безымянный_градиент_225"/><linearGradient id="Безымянный_градиент_225-11" x1="-18.61" y1="266.79" x2="107.14" y2="253.09" xlink:href="#Безымянный_градиент_225"/><linearGradient id="Безымянный_градиент_225-12" x1="-16.93" y1="282.23" x2="108.82" y2="268.53" xlink:href="#Безымянный_градиент_225"/><linearGradient id="Безымянный_градиент_225-13" x1="28.04" y1="433.92" x2="168.21" y2="374.11" xlink:href="#Безымянный_градиент_225"/><linearGradient id="Безымянный_градиент_225-14" x1="65.66" y1="217.43" x2="67.5" y2="461.57" xlink:href="#Безымянный_градиент_225"/><linearGradient id="Безымянный_градиент_225-15" x1="57.74" y1="217.49" x2="59.58" y2="461.63" xlink:href="#Безымянный_градиент_225"/><linearGradient id="Безымянный_градиент_225-16" x1="64.75" y1="217.44" x2="66.59" y2="461.58" xlink:href="#Безымянный_градиент_225"/><linearGradient id="Безымянный_градиент_225-17" x1="78.79" y1="217.34" x2="80.63" y2="461.47" xlink:href="#Безымянный_градиент_225"/><linearGradient id="Безымянный_градиент_225-18" x1="18.05" y1="338.11" x2="106.99" y2="301.92" xlink:href="#Безымянный_градиент_225"/><linearGradient id="Безымянный_градиент_225-19" x1="53.2" y1="217.53" x2="55.04" y2="461.67" xlink:href="#Безымянный_градиент_225"/><linearGradient id="Безымянный_градиент_225-20" x1="84.35" y1="217.29" x2="86.19" y2="461.43" xlink:href="#Безымянный_градиент_225"/><linearGradient id="Безымянный_градиент_225-21" x1="39.8" y1="217.63" x2="41.64" y2="461.76" xlink:href="#Безымянный_градиент_225"/><linearGradient id="Безымянный_градиент_225-22" x1="50.46" y1="217.55" x2="52.3" y2="461.69" xlink:href="#Безымянный_градиент_225"/><linearGradient id="Безымянный_градиент_225-23" x1="1153.69" y1="340.42" x2="1158.33" y2="333.21" gradientTransform="translate(1192.56 445.11) rotate(180)" xlink:href="#Безымянный_градиент_225"/><linearGradient id="Безымянный_градиент_225-24" x1="1101.86" y1="303.77" x2="1106.5" y2="296.57" gradientTransform="translate(1192.56 445.11) rotate(180)" xlink:href="#Безымянный_градиент_225"/><linearGradient id="Безымянный_градиент_225-25" x1="1067.83" y1="314.73" x2="1072.47" y2="307.52" gradientTransform="translate(1192.56 445.11) rotate(180)" xlink:href="#Безымянный_градиент_225"/><linearGradient id="Безымянный_градиент_225-26" x1="1162.69" y1="280.26" x2="1167.33" y2="273.05" gradientTransform="translate(1192.56 445.11) rotate(180)" xlink:href="#Безымянный_градиент_225"/><linearGradient id="Безымянный_градиент_225-27" x1="1128.84" y1="250.59" x2="1133.48" y2="243.38" gradientTransform="translate(1192.56 445.11) rotate(180)" xlink:href="#Безымянный_градиент_225"/><linearGradient id="Безымянный_градиент_225-28" x1="1138.66" y1="331.4" x2="1143.3" y2="324.19" gradientTransform="translate(1192.56 445.11) rotate(180)" xlink:href="#Безымянный_градиент_225"/><linearGradient id="Безымянный_градиент_225-29" x1="1084.99" y1="295.69" x2="1089.63" y2="288.48" gradientTransform="translate(1192.56 445.11) rotate(180)" xlink:href="#Безымянный_градиент_225"/><linearGradient id="Безымянный_градиент_225-30" x1="1089.62" y1="263.44" x2="1094.26" y2="256.23" gradientTransform="translate(1192.56 445.11) rotate(180)" xlink:href="#Безымянный_градиент_225"/><linearGradient id="Безымянный_градиент_225-31" x1="1117.98" y1="353.82" x2="1122.62" y2="346.61" gradientTransform="translate(1192.56 445.11) rotate(180)" xlink:href="#Безымянный_градиент_225"/><linearGradient id="Безымянный_градиент_225-32" x1="1104.71" y1="377.66" x2="1109.35" y2="370.46" gradientTransform="translate(1192.56 445.11) rotate(180)" xlink:href="#Безымянный_градиент_225"/><linearGradient id="Безымянный_градиент_225-33" x1="1082.35" y1="348.01" x2="1086.99" y2="340.81" gradientTransform="translate(1192.56 445.11) rotate(180)" xlink:href="#Безымянный_градиент_225"/><linearGradient id="Безымянный_градиент_225-34" x1="1144.57" y1="353.11" x2="1149.21" y2="345.9" gradientTransform="translate(1192.56 445.11) rotate(180)" xlink:href="#Безымянный_градиент_225"/><linearGradient id="Безымянный_градиент_225-35" x1="1146.78" y1="358.95" x2="1151.42" y2="351.75" gradientTransform="translate(1192.56 445.11) rotate(180)" xlink:href="#Безымянный_градиент_225"/><linearGradient id="Безымянный_градиент_225-36" x1="1109.14" y1="334.59" x2="1113.78" y2="327.38" gradientTransform="translate(1192.56 445.11) rotate(180)" xlink:href="#Безымянный_градиент_225"/><linearGradient id="Безымянный_градиент_225-37" x1="1159.66" y1="360.79" x2="1164.3" y2="353.59" gradientTransform="translate(1192.56 445.11) rotate(180)" xlink:href="#Безымянный_градиент_225"/><linearGradient id="Безымянный_градиент_225-38" x1="1114.58" y1="404.67" x2="1119.21" y2="397.47" gradientTransform="translate(1192.56 445.11) rotate(180)" xlink:href="#Безымянный_градиент_225"/><linearGradient id="Безымянный_градиент_225-39" x1="1119.81" y1="404.45" x2="1124.45" y2="397.24" gradientTransform="translate(1192.56 445.11) rotate(180)" xlink:href="#Безымянный_градиент_225"/><linearGradient id="Безымянный_градиент_225-40" x1="1134.86" y1="399.38" x2="1139.5" y2="392.17" gradientTransform="translate(1192.56 445.11) rotate(180)" xlink:href="#Безымянный_градиент_225"/><linearGradient id="Безымянный_градиент_225-41" x1="1110.58" y1="389.76" x2="1115.21" y2="382.55" gradientTransform="translate(1192.56 445.11) rotate(180)" xlink:href="#Безымянный_градиент_225"/><linearGradient id="Безымянный_градиент_225-42" x1="1136.87" y1="414.93" x2="1141.51" y2="407.72" gradientTransform="translate(1192.56 445.11) rotate(180)" xlink:href="#Безымянный_градиент_225"/><linearGradient id="Безымянный_градиент_225-43" x1="1089.62" y1="351.7" x2="1094.26" y2="344.49" gradientTransform="translate(1192.56 445.11) rotate(180)" xlink:href="#Безымянный_градиент_225"/><linearGradient id="Безымянный_градиент_225-44" x1="1131.61" y1="341.13" x2="1136.25" y2="333.92" gradientTransform="translate(1192.56 445.11) rotate(180)" xlink:href="#Безымянный_градиент_225"/><linearGradient id="Безымянный_градиент_225-45" x1="1101.66" y1="396.47" x2="1106.29" y2="389.27" gradientTransform="translate(1192.56 445.11) rotate(180)" xlink:href="#Безымянный_градиент_225"/><linearGradient id="Безымянный_градиент_225-46" x1="1130.13" y1="299.86" x2="1134.77" y2="292.65" gradientTransform="translate(1192.56 445.11) rotate(180)" xlink:href="#Безымянный_градиент_225"/><linearGradient id="Безымянный_градиент_225-47" x1="1104.71" y1="277.15" x2="1109.35" y2="269.95" gradientTransform="translate(1192.56 445.11) rotate(180)" xlink:href="#Безымянный_градиент_225"/><linearGradient id="Безымянный_градиент_225-48" x1="1117.26" y1="296.98" x2="1121.9" y2="289.77" gradientTransform="translate(1192.56 445.11) rotate(180)" xlink:href="#Безымянный_градиент_225"/><linearGradient id="Безымянный_градиент_225-49" x1="1088.91" y1="310.49" x2="1093.55" y2="303.28" gradientTransform="translate(1192.56 445.11) rotate(180)" xlink:href="#Безымянный_градиент_225"/><linearGradient id="Безымянный_градиент_225-50" x1="1077.58" y1="302.02" x2="1082.22" y2="294.82" gradientTransform="translate(1192.56 445.11) rotate(180)" xlink:href="#Безымянный_градиент_225"/><linearGradient id="Безымянный_градиент_225-51" x1="1109.43" y1="264.82" x2="1114.07" y2="257.61" gradientTransform="translate(1192.56 445.11) rotate(180)" xlink:href="#Безымянный_градиент_225"/><linearGradient id="Безымянный_градиент_225-52" x1="1074.05" y1="250.59" x2="1078.69" y2="243.38" gradientTransform="translate(1192.56 445.11) rotate(180)" xlink:href="#Безымянный_градиент_225"/><linearGradient id="Безымянный_градиент_225-53" x1="1137.95" y1="247.67" x2="1142.59" y2="240.46" gradientTransform="translate(1192.56 445.11) rotate(180)" xlink:href="#Безымянный_градиент_225"/><linearGradient id="Безымянный_градиент_225-54" x1="1126.48" y1="278.97" x2="1131.11" y2="271.76" gradientTransform="translate(1192.56 445.11) rotate(180)" xlink:href="#Безымянный_градиент_225"/><linearGradient id="Безымянный_градиент_225-55" x1="1179.25" y1="274.69" x2="1183.89" y2="267.48" gradientTransform="translate(1192.56 445.11) rotate(180)" xlink:href="#Безымянный_градиент_225"/><linearGradient id="Безымянный_градиент_225-56" x1="1157.44" y1="339.44" x2="1166.56" y2="325.28" gradientTransform="translate(1192.56 445.11) rotate(180)" xlink:href="#Безымянный_градиент_225"/><linearGradient id="Безымянный_градиент_225-57" x1="1153.16" y1="307.22" x2="1162.27" y2="293.06" gradientTransform="translate(1192.56 445.11) rotate(180)" xlink:href="#Безымянный_градиент_225"/><linearGradient id="Безымянный_градиент_225-58" x1="1120.83" y1="321.81" x2="1129.94" y2="307.65" gradientTransform="translate(1192.56 445.11) rotate(180)" xlink:href="#Безымянный_градиент_225"/><linearGradient id="Безымянный_градиент_225-59" x1="1109.87" y1="287.85" x2="1118.98" y2="273.69" gradientTransform="translate(1192.56 445.11) rotate(180)" xlink:href="#Безымянный_градиент_225"/><linearGradient id="Безымянный_градиент_225-60" x1="1172.42" y1="285.83" x2="1181.54" y2="271.67" gradientTransform="translate(1192.56 445.11) rotate(180)" xlink:href="#Безымянный_градиент_225"/><linearGradient id="Безымянный_градиент_225-61" x1="1127.2" y1="356.55" x2="1136.31" y2="342.39" gradientTransform="translate(1192.56 445.11) rotate(180)" xlink:href="#Безымянный_градиент_225"/><linearGradient id="Безымянный_градиент_225-62" x1="1162.04" y1="353.31" x2="1181.92" y2="322.42" gradientTransform="translate(1192.56 445.11) rotate(180)" xlink:href="#Безымянный_градиент_225"/><linearGradient id="Безымянный_градиент_225-63" x1="1112.52" y1="343.14" x2="1132.4" y2="312.25" gradientTransform="translate(1192.56 445.11) rotate(180)" xlink:href="#Безымянный_градиент_225"/><linearGradient id="Безымянный_градиент_225-64" x1="1068.77" y1="334.45" x2="1088.65" y2="303.56" gradientTransform="translate(1192.56 445.11) rotate(180)" xlink:href="#Безымянный_градиент_225"/><linearGradient id="Безымянный_градиент_225-65" x1="1096.44" y1="377.65" x2="1116.32" y2="346.76" gradientTransform="translate(1192.56 445.11) rotate(180)" xlink:href="#Безымянный_градиент_225"/><linearGradient id="Безымянный_градиент_225-66" x1="1135.73" y1="397.71" x2="1155.61" y2="366.82" gradientTransform="translate(1192.56 445.11) rotate(180)" xlink:href="#Безымянный_градиент_225"/><linearGradient id="Безымянный_градиент_225-67" x1="1159.71" y1="269.69" x2="1179.59" y2="238.8" gradientTransform="translate(1192.56 445.11) rotate(180)" xlink:href="#Безымянный_градиент_225"/><linearGradient id="Безымянный_градиент_225-68" x1="1075.51" y1="286.43" x2="1095.39" y2="255.54" gradientTransform="translate(1192.56 445.11) rotate(180)" xlink:href="#Безымянный_градиент_225"/><linearGradient id="Безымянный_градиент_225-69" x1="1161.46" y1="319.29" x2="1181.34" y2="288.4" gradientTransform="translate(1192.56 445.11) rotate(180)" xlink:href="#Безымянный_градиент_225"/><linearGradient id="Безымянный_градиент_225-70" x1="1121.28" y1="303.32" x2="1141.16" y2="272.43" gradientTransform="translate(1192.56 445.11) rotate(180)" xlink:href="#Безымянный_градиент_225"/><linearGradient id="Безымянный_градиент_225-71" x1="1137.8" y1="305.47" x2="1146.91" y2="291.31" gradientTransform="translate(1192.56 445.11) rotate(180)" xlink:href="#Безымянный_градиент_225"/><linearGradient id="Безымянный_градиент_225-72" x1="1178.44" y1="318.18" x2="1187.55" y2="304.02" gradientTransform="translate(1192.56 445.11) rotate(180)" xlink:href="#Безымянный_градиент_225"/><linearGradient id="Безымянный_градиент_225-73" x1="1117.88" y1="389.82" x2="1126.99" y2="375.66" gradientTransform="translate(1192.56 445.11) rotate(180)" xlink:href="#Безымянный_градиент_225"/><linearGradient id="Безымянный_градиент_225-74" x1="1123.69" y1="427.15" x2="1132.81" y2="413" gradientTransform="translate(1192.56 445.11) rotate(180)" xlink:href="#Безымянный_градиент_225"/><linearGradient id="Безымянный_градиент_225-75" x1="1111.82" y1="372.42" x2="1120.93" y2="358.26" gradientTransform="translate(1192.56 445.11) rotate(180)" xlink:href="#Безымянный_градиент_225"/><linearGradient id="Безымянный_градиент_225-76" x1="1143.34" y1="287.85" x2="1152.45" y2="273.69" gradientTransform="translate(1192.56 445.11) rotate(180)" xlink:href="#Безымянный_градиент_225"/><linearGradient id="Безымянный_градиент_225-77" x1="1108.47" y1="256.15" x2="1117.58" y2="241.99" gradientTransform="translate(1192.56 445.11) rotate(180)" xlink:href="#Безымянный_градиент_225"/><linearGradient id="Безымянный_градиент_225-78" x1="1073.24" y1="289.25" x2="1082.35" y2="275.1" gradientTransform="translate(1192.56 445.11) rotate(180)" xlink:href="#Безымянный_градиент_225"/><linearGradient id="Безымянный_градиент_225-79" x1="1060.49" y1="269.67" x2="1069.6" y2="255.51" gradientTransform="translate(1192.56 445.11) rotate(180)" xlink:href="#Безымянный_градиент_225"/><linearGradient id="Безымянный_градиент_225-80" x1="1155.35" y1="331.42" x2="1157.21" y2="328.53" gradientTransform="translate(1192.56 445.11) rotate(180)" xlink:href="#Безымянный_градиент_225"/><linearGradient id="Безымянный_градиент_225-81" x1="1116.53" y1="344.2" x2="1118.39" y2="341.3" gradientTransform="translate(1192.56 445.11) rotate(180)" xlink:href="#Безымянный_градиент_225"/><linearGradient id="Безымянный_градиент_225-82" x1="1131.15" y1="389.88" x2="1133.01" y2="386.99" gradientTransform="translate(1192.56 445.11) rotate(180)" xlink:href="#Безымянный_градиент_225"/><linearGradient id="Безымянный_градиент_225-83" x1="1110.52" y1="354.26" x2="1112.38" y2="351.36" gradientTransform="translate(1192.56 445.11) rotate(180)" xlink:href="#Безымянный_градиент_225"/><linearGradient id="Безымянный_градиент_225-84" x1="1075.12" y1="338.99" x2="1076.99" y2="336.1" gradientTransform="translate(1192.56 445.11) rotate(180)" xlink:href="#Безымянный_градиент_225"/><linearGradient id="Безымянный_градиент_225-85" x1="1116.24" y1="307.06" x2="1118.1" y2="304.17" gradientTransform="translate(1192.56 445.11) rotate(180)" xlink:href="#Безымянный_градиент_225"/><linearGradient id="Безымянный_градиент_225-86" x1="1092.19" y1="277.84" x2="1094.06" y2="274.94" gradientTransform="translate(1192.56 445.11) rotate(180)" xlink:href="#Безымянный_градиент_225"/><linearGradient id="Безымянный_градиент_225-87" x1="1052.43" y1="275.73" x2="1054.29" y2="272.84" gradientTransform="translate(1192.56 445.11) rotate(180)" xlink:href="#Безымянный_градиент_225"/><linearGradient id="Безымянный_градиент_225-88" x1="1155.78" y1="307.92" x2="1157.64" y2="305.03" gradientTransform="translate(1192.56 445.11) rotate(180)" xlink:href="#Безымянный_градиент_225"/><linearGradient id="Безымянный_градиент_225-89" x1="1133.7" y1="271.06" x2="1135.57" y2="268.16" gradientTransform="translate(1192.56 445.11) rotate(180)" xlink:href="#Безымянный_градиент_225"/><linearGradient id="Безымянный_градиент_225-90" x1="1148.16" y1="348.78" x2="1150.02" y2="345.88" gradientTransform="translate(1192.56 445.11) rotate(180)" xlink:href="#Безымянный_градиент_225"/><linearGradient id="Безымянный_градиент_225-91" x1="1158.54" y1="380.84" x2="1160.41" y2="377.95" gradientTransform="translate(1192.56 445.11) rotate(180)" xlink:href="#Безымянный_градиент_225"/><linearGradient id="Безымянный_градиент_225-92" x1="1134.35" y1="383.84" x2="1136.21" y2="380.94" gradientTransform="translate(1192.56 445.11) rotate(180)" xlink:href="#Безымянный_градиент_225"/><linearGradient id="Безымянный_градиент_225-93" x1="1116.24" y1="373.07" x2="1118.1" y2="370.18" gradientTransform="translate(1192.56 445.11) rotate(180)" xlink:href="#Безымянный_градиент_225"/><linearGradient id="Безымянный_градиент_225-94" x1="1148.45" y1="399.65" x2="1150.31" y2="396.76" gradientTransform="translate(1192.56 445.11) rotate(180)" xlink:href="#Безымянный_градиент_225"/><linearGradient id="Безымянный_градиент_225-95" x1="1121.47" y1="409.14" x2="1123.34" y2="406.25" gradientTransform="translate(1192.56 445.11) rotate(180)" xlink:href="#Безымянный_градиент_225"/><linearGradient id="Безымянный_градиент_225-96" x1="1114" y1="393.62" x2="1115.87" y2="390.73" gradientTransform="translate(1192.56 445.11) rotate(180)" xlink:href="#Безымянный_градиент_225"/><linearGradient id="Безымянный_градиент_225-97" x1="1167.61" y1="346.59" x2="1169.48" y2="343.7" gradientTransform="translate(1192.56 445.11) rotate(180)" xlink:href="#Безымянный_градиент_225"/><linearGradient id="Безымянный_градиент_225-98" x1="1158.54" y1="294.56" x2="1160.41" y2="291.66" gradientTransform="translate(1192.56 445.11) rotate(180)" xlink:href="#Безымянный_градиент_225"/><linearGradient id="Безымянный_градиент_225-99" x1="1144.95" y1="337.56" x2="1146.81" y2="334.67" gradientTransform="translate(1192.56 445.11) rotate(180)" xlink:href="#Безымянный_градиент_225"/><linearGradient id="Безымянный_градиент_225-100" x1="1145.23" y1="269.1" x2="1147.1" y2="266.2" gradientTransform="translate(1192.56 445.11) rotate(180)" xlink:href="#Безымянный_градиент_225"/><linearGradient id="Безымянный_градиент_225-101" x1="1098.41" y1="244.82" x2="1100.28" y2="241.92" gradientTransform="translate(1192.56 445.11) rotate(180)" xlink:href="#Безымянный_градиент_225"/><linearGradient id="Безымянный_градиент_225-102" x1="1098.7" y1="268.52" x2="1100.56" y2="265.63" gradientTransform="translate(1192.56 445.11) rotate(180)" xlink:href="#Безымянный_градиент_225"/><linearGradient id="Безымянный_градиент_225-103" x1="1069.5" y1="273.55" x2="1071.36" y2="270.66" gradientTransform="translate(1192.56 445.11) rotate(180)" xlink:href="#Безымянный_градиент_225"/><linearGradient id="Безымянный_градиент_225-104" x1="1073.61" y1="254.89" x2="1075.47" y2="251.99" gradientTransform="translate(1192.56 445.11) rotate(180)" xlink:href="#Безымянный_градиент_225"/><linearGradient id="Безымянный_градиент_225-105" x1="1101.11" y1="288.32" x2="1102.97" y2="285.42" gradientTransform="translate(1192.56 445.11) rotate(180)" xlink:href="#Безымянный_градиент_225"/><linearGradient id="Безымянный_градиент_225-106" x1="1102.95" y1="307.64" x2="1104.81" y2="304.74" gradientTransform="translate(1192.56 445.11) rotate(180)" xlink:href="#Безымянный_градиент_225"/><linearGradient id="Безымянный_градиент_225-107" x1="1054.13" y1="291.43" x2="1056" y2="288.54" gradientTransform="translate(1192.56 445.11) rotate(180)" xlink:href="#Безымянный_градиент_225"/><linearGradient id="Безымянный_градиент_225-108" x1="1084.73" y1="334.15" x2="1086.6" y2="331.25" gradientTransform="translate(1192.56 445.11) rotate(180)" xlink:href="#Безымянный_градиент_225"/><linearGradient id="Безымянный_градиент_225-109" x1="19.99" y1="296.74" x2="31.59" y2="284.34" xlink:href="#Безымянный_градиент_225"/><linearGradient id="Безымянный_градиент_225-110" x1="-67.87" y1="-160.61" x2="-56.27" y2="-173.01" gradientTransform="matrix(0.73, 0.69, 0.69, -0.73, 252.54, 27.6)" xlink:href="#Безымянный_градиент_225"/><linearGradient id="Безымянный_градиент_225-111" x1="-119.88" y1="-164.79" x2="-108.29" y2="-177.19" gradientTransform="matrix(0.73, 0.69, 0.69, -0.73, 252.54, 27.6)" xlink:href="#Безымянный_градиент_225"/><linearGradient id="Безымянный_градиент_225-112" x1="-25.52" y1="-184.68" x2="-13.92" y2="-197.08" gradientTransform="matrix(0.73, 0.69, 0.69, -0.73, 252.54, 27.6)" xlink:href="#Безымянный_градиент_225"/><linearGradient id="Безымянный_градиент_225-113" x1="-39.43" y1="-254.96" x2="-27.83" y2="-267.36" gradientTransform="matrix(0.73, 0.69, 0.69, -0.73, 252.54, 27.6)" xlink:href="#Безымянный_градиент_225"/><linearGradient id="Безымянный_градиент_225-114" x1="51.29" y1="309.4" x2="59.74" y2="300.36" xlink:href="#Безымянный_градиент_225"/><linearGradient id="Безымянный_градиент_225-115" x1="86.41" y1="320.63" x2="94.87" y2="311.59" xlink:href="#Безымянный_градиент_225"/><linearGradient id="Безымянный_градиент_225-116" x1="447.04" y1="555.58" x2="452.77" y2="549.46" gradientTransform="matrix(0.76, -0.65, -0.65, -0.76, 48.43, 835.13)" xlink:href="#Безымянный_градиент_225"/><linearGradient id="Безымянный_градиент_225-117" x1="397.83" y1="514.77" x2="403.55" y2="508.64" gradientTransform="matrix(0.76, -0.65, -0.65, -0.76, 48.43, 835.13)" xlink:href="#Безымянный_градиент_225"/><linearGradient id="Безымянный_градиент_225-118" x1="499.14" y1="495.95" x2="504.87" y2="489.83" gradientTransform="matrix(0.76, -0.65, -0.65, -0.76, 48.43, 835.13)" xlink:href="#Безымянный_градиент_225"/><linearGradient id="Безымянный_градиент_225-119" x1="521.38" y1="555.74" x2="527.11" y2="549.61" gradientTransform="matrix(0.76, -0.65, -0.65, -0.76, 48.43, 835.13)" xlink:href="#Безымянный_градиент_225"/><linearGradient id="Безымянный_градиент_225-120" x1="525.41" y1="600.4" x2="531.14" y2="594.28" gradientTransform="matrix(0.76, -0.65, -0.65, -0.76, 48.43, 835.13)" xlink:href="#Безымянный_градиент_225"/><linearGradient id="Безымянный_градиент_225-121" x1="464.97" y1="496.8" x2="470.7" y2="490.67" gradientTransform="matrix(0.76, -0.65, -0.65, -0.76, 48.43, 835.13)" xlink:href="#Безымянный_градиент_225"/><linearGradient id="Безымянный_градиент_225-122" x1="484.77" y1="542.31" x2="490.5" y2="536.19" gradientTransform="matrix(0.76, -0.65, -0.65, -0.76, 48.43, 835.13)" xlink:href="#Безымянный_градиент_225"/><linearGradient id="Безымянный_градиент_225-123" x1="67.22" y1="363.38" x2="75.67" y2="354.34" xlink:href="#Безымянный_градиент_225"/><linearGradient id="Безымянный_градиент_225-124" x1="315.36" y1="550.66" x2="323.81" y2="541.63" gradientTransform="matrix(0.88, -0.48, -0.48, -0.88, 26.5, 733.09)" xlink:href="#Безымянный_градиент_225"/><linearGradient id="Безымянный_градиент_225-125" x1="363.96" y1="576.55" x2="372.41" y2="567.51" gradientTransform="matrix(0.88, -0.48, -0.48, -0.88, 26.5, 733.09)" xlink:href="#Безымянный_градиент_225"/><linearGradient id="Безымянный_градиент_225-126" x1="329.6" y1="458.44" x2="338.06" y2="449.41" gradientTransform="matrix(0.88, -0.48, -0.48, -0.88, 26.5, 733.09)" xlink:href="#Безымянный_градиент_225"/><linearGradient id="Безымянный_градиент_225-127" x1="50.28" y1="450.79" x2="78.29" y2="415.62" xlink:href="#Безымянный_градиент_225"/></defs><g id="Слой_2" data-name="Слой 2"><g id="Слой_1-2" data-name="Слой 1"><path class="cls-1" d="M57.62,39a62.86,62.86,0,0,0,5.07,6.14l1.36,1.43L65.46,48l1.44,1.34,1.47,1.29c.51.41,1,.82,1.54,1.21l1.6,1.13c.53.36,1.06.74,1.57,1.14s1,.79,1.5,1.22,1,.83,1.48,1.28,1,.86,1.47,1.32,1,.92,1.46,1.39,1,1,1.43,1.52h0a.19.19,0,0,1-.18.31,16.27,16.27,0,0,1-2.08-.41c-.66-.2-1.33-.41-2-.65s-1.27-.55-1.9-.84-1.21-.66-1.81-1-1.15-.76-1.7-1.18-1-.89-1.56-1.36l-1.44-1.49c-.46-.51-.93-1-1.4-1.51L65,51.14l-1.32-1.58-1.24-1.63-1.17-1.67a49.69,49.69,0,0,1-4-7.07.18.18,0,0,1,.31-.19Z"/><path class="cls-2" d="M82.48,63.76a37.59,37.59,0,0,1-7.39,11.5A51.2,51.2,0,0,1,70,80a58.88,58.88,0,0,1-5.65,4c-2,1.22-3.94,2.4-6,3.48a43.47,43.47,0,0,1-6.33,2.7A66.71,66.71,0,0,1,45.47,92a52.37,52.37,0,0,1-6.78,1.11.19.19,0,0,1-.2-.17.21.21,0,0,1,.09-.18c2-1.19,4-2.19,6.07-3.16s4.09-1.88,6.12-2.78,4.08-1.75,6.14-2.58a60.72,60.72,0,0,0,6-2.74,55.2,55.2,0,0,0,5.65-3.43A47.86,47.86,0,0,0,73.82,74a38.47,38.47,0,0,0,8.33-10.37.18.18,0,0,1,.25-.07A.18.18,0,0,1,82.48,63.76Z"/><path class="cls-3" d="M34,107.14a137.23,137.23,0,0,0,17.14,8.29l4.44,1.69L60,118.66l4.53,1.39,4.57,1.24c1.53.35,3.07.7,4.61,1l4.65.84c1.55.23,3.1.48,4.65.76s3.1.49,4.65.76,3.11.46,4.67.73,3.12.41,4.69.67,3.14.39,4.72.61,3.16.37,4.76.65h0a.19.19,0,0,1,.15.21.21.21,0,0,1-.15.15c-1.59.27-3.19.45-4.8.64s-3.22.21-4.83.27-3.23,0-4.84,0-3.23-.2-4.84-.32-3.21-.39-4.8-.63-3.18-.62-4.75-1L73,125.43l-4.64-1.37-4.59-1.49-4.53-1.66-4.46-1.84-4.38-2a123.92,123.92,0,0,1-16.61-9.62.18.18,0,0,1,0-.25A.18.18,0,0,1,34,107.14Z"/><path class="cls-4" d="M102,118.88a174.17,174.17,0,0,1-18.43,7l-4.73,1.42-4.77,1.29-4.82,1.14-4.84,1-4.87.92-4.89.82c-1.64.22-3.28.43-4.93.6s-3.3.22-4.95.31-3.31,0-5,0-3.31-.1-5-.21-3.29-.29-4.93-.46-3.28-.47-4.91-.79a.18.18,0,0,1,0-.36h0c1.64-.22,3.28-.36,4.91-.5s3.26-.31,4.89-.42l9.72-.89c1.61-.17,3.22-.33,4.84-.44s3.23-.3,4.85-.41l4.85-.44,4.84-.6,4.82-.76,4.79-.89,4.79-1,4.76-1.12a195.28,195.28,0,0,0,18.78-5.61.19.19,0,0,1,.23.12A.2.2,0,0,1,102,118.88Z"/><path class="cls-5" d="M112.38,147A199,199,0,0,1,87.8,161a209.88,209.88,0,0,1-26.38,10.37l-6.81,2.06-6.86,1.85c-2.31.53-4.63,1.05-7,1.53s-4.68.77-7,1.13l-7.07.75c-2.37.13-4.73.3-7.1.4s-4.74,0-7.1,0-4.73-.22-7.09-.41a.18.18,0,0,1,0-.36h0c2.34-.35,4.68-.61,7-.87s4.65-.64,7-.92,4.63-.69,6.94-1l6.9-1.15c2.29-.44,4.58-.87,6.87-1.26s4.57-.9,6.87-1.32l6.84-1.47,6.79-1.72a207.85,207.85,0,0,0,26.46-9.25,213.16,213.16,0,0,0,25.13-12.64.17.17,0,0,1,.24.06A.19.19,0,0,1,112.38,147Z"/><path class="cls-6" d="M9.59,164.67a181.7,181.7,0,0,0,28.35,10.06,215.74,215.74,0,0,0,29.47,5.74l7.46.81,7.48.56,15,.89,7.5.39c2.5.11,5,.18,7.52.33s5,.18,7.53.3,5,.18,7.56.35h0a.2.2,0,0,1,.17.2.19.19,0,0,1-.16.16c-2.5.37-5,.65-7.53.94s-5,.42-7.56.58-5,.21-7.58.32l-7.59,0c-2.53-.07-5.06-.16-7.59-.29s-5.05-.4-7.57-.64l-7.54-.94L67,183.33a219.47,219.47,0,0,1-29.55-6.86A173.94,173.94,0,0,1,9.43,165a.18.18,0,0,1,.16-.33Z"/><path class="cls-7" d="M51.69,56.34a51.6,51.6,0,0,0,5.78-5.14l1.31-1.39L60,48.37l1.21-1.47,1.14-1.51c.36-.52.71-1,1-1.57l1-1.63c.31-.55.63-1.09,1-1.61s.67-1,1-1.56.72-1,1.1-1.53.74-1,1.14-1.54.78-1,1.19-1.55a18.43,18.43,0,0,1,1.32-1.55h0a.18.18,0,0,1,.27,0,.16.16,0,0,1,.06.13,15.88,15.88,0,0,1-.15,2.07c-.12.66-.24,1.34-.41,2s-.4,1.29-.62,1.93-.52,1.25-.8,1.87-.64,1.19-1,1.76-.79,1.1-1.21,1.63L66,45.75c-.47.49-.92,1-1.37,1.48l-1.4,1.44L61.75,50l-1.53,1.3-1.57,1.22a42.18,42.18,0,0,1-6.77,4.09.18.18,0,0,1-.24-.09A.2.2,0,0,1,51.69,56.34Z"/><path class="cls-8" d="M73.85,45.39A48,48,0,0,1,69.21,57.8a58.31,58.31,0,0,1-3.52,5.68,65.63,65.63,0,0,1-4.16,5.25c-1.48,1.68-3,3.33-4.59,4.9a38.35,38.35,0,0,1-5.19,4.25A49.61,49.61,0,0,1,46,81.28a39.88,39.88,0,0,1-6.19,2.55.18.18,0,0,1-.23-.12.19.19,0,0,1,.05-.19c1.63-1.55,3.3-3,5-4.36l5-4.16c1.65-1.37,3.32-2.71,5-4a56.9,56.9,0,0,0,4.85-4.21A60.91,60.91,0,0,0,63.79,62a56,56,0,0,0,3.87-5.16A50,50,0,0,0,73.5,45.29a.19.19,0,0,1,.23-.11A.18.18,0,0,1,73.85,45.39Z"/><path class="cls-9" d="M43.25,74.51A84,84,0,0,0,54.6,84.09l3.06,2.08,3.15,1.92L64,89.9l3.28,1.66c1.12.5,2.24,1,3.37,1.48l3.43,1.29c1.16.39,2.31.79,3.45,1.23s2.3.8,3.44,1.22,2.31.78,3.46,1.21,2.34.73,3.5,1.15,2.36.73,3.55,1.12,2.39.71,3.59,1.15h0a.19.19,0,0,1,.11.23.18.18,0,0,1-.16.12c-1.27.1-2.54.11-3.82.12s-2.53-.14-3.8-.26-2.51-.37-3.78-.55-2.48-.55-3.72-.84-2.45-.73-3.65-1.14-2.37-1-3.54-1.46l-3.42-1.7c-1.11-.61-2.23-1.22-3.34-1.81L62.7,92.19l-3.18-2.08-3.07-2.23-3-2.36A77,77,0,0,1,43,74.75a.18.18,0,0,1,0-.25A.18.18,0,0,1,43.25,74.51Z"/><path class="cls-10" d="M28.78,119.55a121.14,121.14,0,0,0,18.73,14,120.94,120.94,0,0,0,20.9,10.2l5.49,1.89,5.58,1.59c1.88.46,3.75.92,5.62,1.42s3.76.85,5.64,1.3l5.68,1.16c1.91.33,3.82.63,5.73,1s3.85.53,5.78.83,3.89.43,5.85.73h0a.2.2,0,0,1,.15.21.19.19,0,0,1-.16.15c-2,.24-3.93.39-5.91.55s-4,.06-6,0-4-.24-6-.37l-5.91-.77c-2-.38-3.91-.77-5.85-1.2s-3.83-1.07-5.74-1.63l-5.61-2-5.52-2.23a123.38,123.38,0,0,1-20.81-11.37,115.27,115.27,0,0,1-18-15.25.18.18,0,0,1,0-.26A.18.18,0,0,1,28.78,119.55Z"/><path class="cls-11" d="M117.19,180c-9.35,3.2-18.88,5.87-28.52,8.15s-19.4,4-29.23,5.31l-7.38.92-7.4.79c-2.47.19-4.95.37-7.43.52s-5,.14-7.44.18l-7.44-.12c-2.48-.14-5-.24-7.43-.41s-4.94-.45-7.41-.71S2.6,194,.15,193.56a.19.19,0,0,1-.15-.21.2.2,0,0,1,.17-.15h0c2.48-.13,4.94-.17,7.41-.21s4.93-.15,7.39-.19,4.92-.15,7.37-.23l7.36-.3c2.45-.13,4.9-.25,7.35-.33s4.9-.24,7.35-.33l7.36-.41,7.34-.61c9.78-1,19.53-2.35,29.19-4.2s19.28-4.08,28.78-6.73a.17.17,0,0,1,.22.13A.16.16,0,0,1,117.19,180Z"/><path class="cls-12" d="M15.44,148.16a124.29,124.29,0,0,0,23.71,17.78A168.38,168.38,0,0,0,65.9,178.57q6.94,2.58,14.07,4.65l14.22,4.2,14.27,4.19c4.76,1.4,9.54,2.82,14.27,4.42a.18.18,0,0,1-.08.35c-5-.59-9.88-1.39-14.78-2.31-2.46-.44-4.89-1-7.34-1.48s-4.86-1.11-7.29-1.7c-4.84-1.21-9.65-2.62-14.37-4.27s-9.4-3.44-14-5.37A170.53,170.53,0,0,1,38.2,167.48a121.83,121.83,0,0,1-23-19.06.2.2,0,0,1,0-.26A.18.18,0,0,1,15.44,148.16Z"/><path class="cls-13" d="M68.88,26.49a10.08,10.08,0,0,1-1.36,1,9.65,9.65,0,0,1-1.53.71,4.49,4.49,0,0,1-1.64.44,3.08,3.08,0,0,1-1.69-.46.06.06,0,0,1,0-.09s0,0,0,0a6,6,0,0,1,1.54-.61,13.2,13.2,0,0,1,1.54-.18,14.41,14.41,0,0,0,3.07-.84s.07,0,.08,0A.08.08,0,0,1,68.88,26.49Z"/><path class="cls-14" d="M61.58,30.26a21.25,21.25,0,0,1,3,1.91c.93.68,1.82,1.39,2.7,2.09s1.75,1.4,2.64,2.08l2.77,2.1a9.13,9.13,0,0,1-3.49-.88,14.67,14.67,0,0,1-3-1.89,18.47,18.47,0,0,1-2.53-2.47A15.9,15.9,0,0,1,61.58,30.26Z"/><path class="cls-15" d="M51.56,64.34c1.28.6,2.47,1.24,3.68,1.84s2.4,1.18,3.61,1.73,2.43,1.06,3.68,1.57,2.51,1,3.81,1.55a13.53,13.53,0,0,1-4.21-.2,17.76,17.76,0,0,1-4-1.28,18.8,18.8,0,0,1-3.63-2.18A14,14,0,0,1,51.56,64.34Z"/><path class="cls-16" d="M77.71,84.49a22.64,22.64,0,0,1-4.59,5.13c-.45.37-.9.73-1.36,1.08l-1.43,1c-.49.31-1,.59-1.49.89l-1.54.81a27.81,27.81,0,0,1-6.57,2.22,22.68,22.68,0,0,1-6.87.4c2.23-.51,4.4-1.06,6.51-1.76a50.5,50.5,0,0,0,6.14-2.48L68,91c.48-.26,1-.54,1.45-.8l1.43-.84,1.4-.89C74.14,87.28,75.92,85.93,77.71,84.49Z"/><path class="cls-17" d="M67.29,105.88c2.12,0,4.19.07,6.26.09s4.12,0,6.17-.06,4.1-.18,6.17-.31,4.12-.34,6.24-.48a28.63,28.63,0,0,1-6,1.87,38.23,38.23,0,0,1-6.31.72,37.27,37.27,0,0,1-6.33-.34A28.9,28.9,0,0,1,67.29,105.88Z"/><path class="cls-18" d="M43.15,119c3.23,1.51,6.46,2.93,9.75,4.18.83.3,1.66.59,2.48.91l2.49.84c.85.25,1.68.52,2.52.78l2.53.72,2.55.66,2.56.59,2.58.55c.87.15,1.73.32,2.6.49,3.47.61,7,1.07,10.51,1.5a56.27,56.27,0,0,1-10.7-.11c-.89-.1-1.78-.2-2.67-.32l-2.66-.43-2.63-.55-2.61-.65-2.58-.77c-.85-.28-1.7-.56-2.55-.86l-2.51-1c-.82-.35-1.64-.72-2.46-1.09A50.75,50.75,0,0,1,43.15,119Z"/><path class="cls-19" d="M40.25,138.72l6.88-.22,1.71-.09,1.7-.1c.56-.05,1.13-.08,1.69-.12l1.7-.15c2.25-.2,4.51-.45,6.76-.77l6.82-1A33,33,0,0,1,61,138.65a43.43,43.43,0,0,1-6.88,1.19l-1.75.11c-.58,0-1.16.05-1.74.06-1.17,0-2.33,0-3.49-.12A32.5,32.5,0,0,1,40.25,138.72Z"/><path class="cls-20" d="M101.16,157.88a42.28,42.28,0,0,1-6.78,6.52c-.62.48-1.25,1-1.89,1.42l-2,1.32c-.67.42-1.35.82-2,1.23l-2.07,1.15-2.12,1-2.17,1-2.21.85c-.74.26-1.49.5-2.24.74a42.88,42.88,0,0,1-9.23,1.83c3-1,5.9-2,8.76-3.15.71-.31,1.42-.61,2.13-.89l2.11-.94,2.09-1,2-1.05,2-1.08,2-1.15,2-1.18c.64-.43,1.29-.84,1.95-1.24C96.15,161.58,98.66,159.76,101.16,157.88Z"/><path class="cls-21" d="M24.73,180.62c2.57.62,5.1,1.24,7.64,1.77.63.12,1.27.24,1.9.38l1.91.35c.64.09,1.28.22,1.91.32l1.92.28c2.56.35,5.13.63,7.71.82s5.19.29,7.83.41a37.76,37.76,0,0,1-7.86,1,46.83,46.83,0,0,1-7.93-.45l-2-.32c-.65-.13-1.31-.25-1.95-.39l-1.93-.49c-.64-.17-1.28-.36-1.91-.56A37.75,37.75,0,0,1,24.73,180.62Z"/><path class="cls-22" d="M36,157.1c2.39,1.59,4.73,3.16,7.13,4.65l1.8,1.1,1.82,1.07c.62.34,1.22.7,1.83,1.05l1.86,1,1.86,1,1.89.94,1.9.91c.64.29,1.28.58,1.92.89,2.57,1.15,5.18,2.22,7.83,3.32a43.08,43.08,0,0,1-8.35-2c-.68-.23-1.35-.48-2-.73l-2-.82-1.95-.91-1.93-1-1.88-1.06c-.61-.37-1.24-.73-1.84-1.11l-1.8-1.2-1.74-1.27A44.13,44.13,0,0,1,36,157.1Z"/><path class="cls-23" d="M35.86,108.27a.72.72,0,1,0,.72-.71A.72.72,0,0,0,35.86,108.27Z"/><path class="cls-24" d="M87.69,144.91a.72.72,0,1,0,.72-.71A.72.72,0,0,0,87.69,144.91Z"/><path class="cls-25" d="M121.71,134a.72.72,0,1,0,.72-.71A.72.72,0,0,0,121.71,134Z"/><path class="cls-26" d="M26.86,168.42a.72.72,0,1,0,.72-.71A.72.72,0,0,0,26.86,168.42Z"/><path class="cls-27" d="M60.71,198.1a.72.72,0,1,0,.72-.71A.72.72,0,0,0,60.71,198.1Z"/><path class="cls-28" d="M50.88,117.28a.72.72,0,1,0,.72-.71A.72.72,0,0,0,50.88,117.28Z"/><circle class="cls-29" cx="105.27" cy="153" r="0.72"/><path class="cls-30" d="M99.92,185.25a.72.72,0,1,0,.72-.72A.72.72,0,0,0,99.92,185.25Z"/><path class="cls-31" d="M71.57,94.86a.72.72,0,1,0,.72-.71A.72.72,0,0,0,71.57,94.86Z"/><path class="cls-32" d="M84.84,71a.72.72,0,1,0,.71-.71A.71.71,0,0,0,84.84,71Z"/><path class="cls-33" d="M107.2,100.67a.72.72,0,1,0,.71-.71A.71.71,0,0,0,107.2,100.67Z"/><path class="cls-34" d="M45,95.58a.72.72,0,1,0,.72-.72A.72.72,0,0,0,45,95.58Z"/><path class="cls-35" d="M42.76,89.73a.72.72,0,1,0,.72-.71A.72.72,0,0,0,42.76,89.73Z"/><path class="cls-36" d="M80.4,114.1a.72.72,0,1,0,.72-.72A.72.72,0,0,0,80.4,114.1Z"/><path class="cls-37" d="M29.89,87.89a.72.72,0,1,0,.71-.71A.71.71,0,0,0,29.89,87.89Z"/><path class="cls-38" d="M75,44a.72.72,0,1,0,.72-.71A.72.72,0,0,0,75,44Z"/><path class="cls-39" d="M69.74,44.24a.72.72,0,1,0,.71-.72A.71.71,0,0,0,69.74,44.24Z"/><path class="cls-40" d="M54.69,49.31a.72.72,0,1,0,.72-.72A.71.71,0,0,0,54.69,49.31Z"/><path class="cls-41" d="M79,58.93a.72.72,0,1,0,.72-.72A.71.71,0,0,0,79,58.93Z"/><path class="cls-42" d="M52.68,33.76a.72.72,0,1,0,.71-.72A.71.71,0,0,0,52.68,33.76Z"/><path class="cls-43" d="M99.92,97a.72.72,0,1,0,.72-.72A.72.72,0,0,0,99.92,97Z"/><path class="cls-44" d="M57.94,107.56a.72.72,0,1,0,.71-.72A.71.71,0,0,0,57.94,107.56Z"/><path class="cls-45" d="M87.89,52.21a.72.72,0,1,0,.72-.71A.72.72,0,0,0,87.89,52.21Z"/><path class="cls-46" d="M59.42,148.83a.72.72,0,1,0,.72-.72A.71.71,0,0,0,59.42,148.83Z"/><path class="cls-47" d="M84.84,171.53a.72.72,0,1,0,.71-.71A.71.71,0,0,0,84.84,171.53Z"/><path class="cls-48" d="M72.29,151.71A.72.72,0,1,0,73,151,.71.71,0,0,0,72.29,151.71Z"/><path class="cls-49" d="M100.64,138.2a.72.72,0,1,0,.72-.72A.71.71,0,0,0,100.64,138.2Z"/><path class="cls-50" d="M112,146.66a.72.72,0,1,0,.72-.71A.72.72,0,0,0,112,146.66Z"/><path class="cls-51" d="M80.12,183.86a.72.72,0,1,0,.71-.71A.71.71,0,0,0,80.12,183.86Z"/><path class="cls-52" d="M115.5,198.1a.72.72,0,1,0,.71-.71A.71.71,0,0,0,115.5,198.1Z"/><path class="cls-53" d="M51.6,201a.72.72,0,1,0,.72-.71A.72.72,0,0,0,51.6,201Z"/><path class="cls-54" d="M63.07,169.72a.72.72,0,1,0,.72-.72A.71.71,0,0,0,63.07,169.72Z"/><path class="cls-55" d="M10.3,174a.72.72,0,1,0,.71-.72A.72.72,0,0,0,10.3,174Z"/><circle class="cls-56" cx="30.6" cy="112.69" r="1.41"/><path class="cls-57" d="M33.48,144.91a1.41,1.41,0,1,0,1.41-1.4A1.41,1.41,0,0,0,33.48,144.91Z"/><path class="cls-58" d="M65.81,130.32a1.41,1.41,0,1,0,1.41-1.41A1.41,1.41,0,0,0,65.81,130.32Z"/><path class="cls-59" d="M76.77,164.28a1.41,1.41,0,1,0,1.41-1.4A1.41,1.41,0,0,0,76.77,164.28Z"/><path class="cls-60" d="M14.22,166.3a1.41,1.41,0,1,0,1.4-1.4A1.41,1.41,0,0,0,14.22,166.3Z"/><path class="cls-61" d="M59.45,95.58a1.41,1.41,0,1,0,1.4-1.41A1.41,1.41,0,0,0,59.45,95.58Z"/><path class="cls-62" d="M17.61,107.12a3.07,3.07,0,1,0,3.06-3.07A3.07,3.07,0,0,0,17.61,107.12Z"/><path class="cls-63" d="M67.12,117.28a3.07,3.07,0,1,0,3.07-3.06A3.06,3.06,0,0,0,67.12,117.28Z"/><path class="cls-64" d="M110.87,126a3.07,3.07,0,1,0,3.07-3.07A3.08,3.08,0,0,0,110.87,126Z"/><path class="cls-65" d="M83.2,82.78a3.07,3.07,0,1,0,3.07-3.07A3.07,3.07,0,0,0,83.2,82.78Z"/><path class="cls-66" d="M43.91,62.71A3.07,3.07,0,1,0,47,59.64,3.08,3.08,0,0,0,43.91,62.71Z"/><path class="cls-67" d="M19.94,190.73A3.07,3.07,0,1,0,23,187.67,3.06,3.06,0,0,0,19.94,190.73Z"/><path class="cls-68" d="M104.13,174a3.07,3.07,0,1,0,3.07-3.07A3.07,3.07,0,0,0,104.13,174Z"/><path class="cls-69" d="M18.18,141.13a3.07,3.07,0,1,0,3.07-3.07A3.07,3.07,0,0,0,18.18,141.13Z"/><path class="cls-70" d="M58.36,157.1A3.07,3.07,0,1,0,61.43,154,3.06,3.06,0,0,0,58.36,157.1Z"/><path class="cls-71" d="M48.84,146.66a1.41,1.41,0,1,0,1.41-1.4A1.41,1.41,0,0,0,48.84,146.66Z"/><path class="cls-72" d="M8.2,134a1.41,1.41,0,1,0,1.41-1.4A1.41,1.41,0,0,0,8.2,134Z"/><path class="cls-73" d="M68.76,62.31a1.41,1.41,0,1,0,1.41-1.4A1.41,1.41,0,0,0,68.76,62.31Z"/><path class="cls-74" d="M63,25a1.41,1.41,0,1,0,1.4-1.41A1.4,1.4,0,0,0,63,25Z"/><path class="cls-75" d="M74.83,79.71a1.41,1.41,0,1,0,1.4-1.4A1.41,1.41,0,0,0,74.83,79.71Z"/><path class="cls-76" d="M43.31,164.28a1.41,1.41,0,1,0,1.4-1.4A1.41,1.41,0,0,0,43.31,164.28Z"/><path class="cls-77" d="M78.18,196a1.41,1.41,0,1,0,1.4-1.41A1.4,1.4,0,0,0,78.18,196Z"/><path class="cls-78" d="M113.4,162.88a1.41,1.41,0,1,0,1.41-1.41A1.41,1.41,0,0,0,113.4,162.88Z"/><path class="cls-79" d="M126.15,182.46a1.41,1.41,0,1,0,1.41-1.41A1.41,1.41,0,0,0,126.15,182.46Z"/><path class="cls-80" d="M36,115.12a.29.29,0,1,0,.29-.28A.29.29,0,0,0,36,115.12Z"/><path class="cls-81" d="M74.83,102.35a.29.29,0,1,0,.28-.29A.29.29,0,0,0,74.83,102.35Z"/><path class="cls-82" d="M60.21,56.66a.28.28,0,0,0,.28.29.29.29,0,1,0,0-.57A.28.28,0,0,0,60.21,56.66Z"/><path class="cls-83" d="M80.83,92.29a.29.29,0,1,0,.29-.29A.29.29,0,0,0,80.83,92.29Z"/><path class="cls-84" d="M116.23,107.56a.29.29,0,1,0,.29-.29A.29.29,0,0,0,116.23,107.56Z"/><path class="cls-85" d="M75.11,139.49a.29.29,0,0,0,.58,0,.29.29,0,1,0-.58,0Z"/><path class="cls-86" d="M99.16,168.71a.29.29,0,0,0,.29.29.29.29,0,0,0,0-.58A.29.29,0,0,0,99.16,168.71Z"/><path class="cls-87" d="M138.93,170.82a.29.29,0,1,0,.29-.29A.29.29,0,0,0,138.93,170.82Z"/><path class="cls-88" d="M35.58,138.62a.28.28,0,0,0,.28.29.29.29,0,1,0,0-.57A.28.28,0,0,0,35.58,138.62Z"/><path class="cls-89" d="M57.65,175.49a.29.29,0,1,0,.29-.29A.29.29,0,0,0,57.65,175.49Z"/><path class="cls-90" d="M43.19,97.77a.29.29,0,1,0,.29-.29A.29.29,0,0,0,43.19,97.77Z"/><path class="cls-91" d="M32.81,65.71a.28.28,0,0,0,.29.28.27.27,0,0,0,.28-.28.28.28,0,0,0-.28-.29A.29.29,0,0,0,32.81,65.71Z"/><path class="cls-92" d="M57,62.71a.29.29,0,1,0,.28-.29A.29.29,0,0,0,57,62.71Z"/><path class="cls-93" d="M75.11,73.48a.29.29,0,0,0,.58,0,.29.29,0,0,0-.58,0Z"/><path class="cls-94" d="M42.91,46.9a.28.28,0,0,0,.28.28.29.29,0,1,0,0-.57A.28.28,0,0,0,42.91,46.9Z"/><path class="cls-95" d="M69.88,37.41a.28.28,0,0,0,.29.28.27.27,0,0,0,.28-.28.28.28,0,0,0-.28-.29A.29.29,0,0,0,69.88,37.41Z"/><path class="cls-96" d="M77.35,52.93a.29.29,0,1,0,.29-.29A.29.29,0,0,0,77.35,52.93Z"/><path class="cls-97" d="M23.74,100a.29.29,0,1,0,.29-.29A.29.29,0,0,0,23.74,100Z"/><path class="cls-98" d="M32.81,152a.29.29,0,0,0,.29.29.28.28,0,0,0,.28-.29.27.27,0,0,0-.28-.28A.28.28,0,0,0,32.81,152Z"/><path class="cls-99" d="M46.41,109a.27.27,0,0,0,.28.28A.28.28,0,0,0,47,109a.29.29,0,0,0-.29-.29A.28.28,0,0,0,46.41,109Z"/><path class="cls-100" d="M46.12,177.45a.29.29,0,0,0,.29.29.29.29,0,0,0,0-.58A.29.29,0,0,0,46.12,177.45Z"/><path class="cls-101" d="M92.94,201.73a.29.29,0,1,0,.29-.29A.29.29,0,0,0,92.94,201.73Z"/><path class="cls-102" d="M92.65,178a.29.29,0,1,0,.29-.29A.29.29,0,0,0,92.65,178Z"/><path class="cls-103" d="M121.85,173a.29.29,0,1,0,.29-.29A.29.29,0,0,0,121.85,173Z"/><path class="cls-104" d="M117.75,191.66a.29.29,0,1,0,.28-.29A.28.28,0,0,0,117.75,191.66Z"/><path class="cls-105" d="M90.25,158.23a.28.28,0,0,0,.28.29.29.29,0,1,0-.28-.29Z"/><path class="cls-106" d="M88.4,138.91a.29.29,0,1,0,.29-.29A.29.29,0,0,0,88.4,138.91Z"/><path class="cls-107" d="M137.22,155.12a.29.29,0,1,0,.29-.29A.29.29,0,0,0,137.22,155.12Z"/><path class="cls-108" d="M106.62,112.4a.29.29,0,1,0,.29-.29A.29.29,0,0,0,106.62,112.4Z"/><path class="cls-109" d="M30.18,155.89l-1.18.32-.32-.18,1.13-.31a.21.21,0,0,0-.1-.41l-1.55.42L27,155.07l.78-.21a.2.2,0,0,0,.15-.23.22.22,0,0,0-.15-.23l-.78-.21,1.14-.65,1.54.41h.05a.2.2,0,0,0,.2-.16.21.21,0,0,0-.15-.26l-1.13-.3.33-.18,1.18.31h0a.2.2,0,0,0,.2-.16.21.21,0,0,0-.15-.26l-.77-.2.44-.26a.2.2,0,0,0,.07-.28.19.19,0,0,0-.28-.08l-.44.25.21-.78a.21.21,0,0,0-.41-.1l-.32,1.18-.32.18.3-1.13a.21.21,0,0,0-.15-.26.22.22,0,0,0-.26.15L28,153.17l-1.13.66.21-.78a.22.22,0,0,0-.13-.25.21.21,0,0,0-.27,0l-.57.57v-1.31L27.19,151a.21.21,0,0,0-.3-.3l-.83.83v-.37l.87-.86a.21.21,0,1,0-.3-.3l-.57.56V150a.21.21,0,1,0-.42,0v.51l-.57-.57a.21.21,0,0,0-.3.3l.87.86v.37l-.83-.83a.21.21,0,0,0-.3.3l1.13,1.13v1.31l-.57-.57a.23.23,0,0,0-.28,0,.22.22,0,0,0-.12.25l.21.77-1.13-.65-.42-1.54a.21.21,0,0,0-.26-.15.22.22,0,0,0-.15.26l.31,1.13-.32-.19-.32-1.18a.21.21,0,0,0-.41.11l.21.77-.44-.25a.21.21,0,0,0-.29.08.22.22,0,0,0,.08.29l.44.25-.78.21a.22.22,0,0,0-.15.26.23.23,0,0,0,.21.16h.05l1.19-.32.32.19-1.14.3a.22.22,0,0,0-.15.26.23.23,0,0,0,.21.16h0l1.54-.42,1.14.66-.78.21a.2.2,0,0,0-.15.23.21.21,0,0,0,.15.23l.77.2-1.13.66L22,155.31a.21.21,0,0,0-.26.15.22.22,0,0,0,.15.26L23,156l-.32.18-1.18-.31a.21.21,0,0,0-.26.15.22.22,0,0,0,.15.26l.77.2-.43.25a.21.21,0,0,0-.08.29.21.21,0,0,0,.18.11.2.2,0,0,0,.11,0l.44-.25-.21.77a.21.21,0,0,0,.15.26h.05a.21.21,0,0,0,.21-.16l.32-1.18.32-.19-.31,1.14a.22.22,0,0,0,.15.26h.06a.21.21,0,0,0,.2-.16l.41-1.55,1.14-.65-.21.78a.2.2,0,0,0,.12.24.21.21,0,0,0,.13.05.22.22,0,0,0,.15-.06l.56-.57v1.31l-1.12,1.13a.2.2,0,0,0,0,.3.2.2,0,0,0,.15.06.24.24,0,0,0,.15-.06l.82-.83v.37l-.86.86a.22.22,0,0,0,0,.3.22.22,0,0,0,.3,0l.56-.56v.5a.22.22,0,0,0,.43,0v-.51l.57.57a.2.2,0,0,0,.15.06.24.24,0,0,0,.15-.06.22.22,0,0,0,0-.3l-.87-.87v-.37l.83.84a.22.22,0,0,0,.3,0,.22.22,0,0,0,0-.3l-1.13-1.13v-1.31l.57.57a.2.2,0,0,0,.15.06.24.24,0,0,0,.13-.05.2.2,0,0,0,.12-.24l-.21-.77,1.13.65.42,1.54a.2.2,0,0,0,.2.15h.06a.22.22,0,0,0,.15-.26l-.31-1.13.32.18.32,1.18a.2.2,0,0,0,.2.16h.06a.21.21,0,0,0,.15-.26l-.21-.77.44.25a.19.19,0,0,0,.1,0,.21.21,0,0,0,.18-.1.21.21,0,0,0-.07-.29l-.44-.26.78-.2a.22.22,0,0,0,.15-.26A.23.23,0,0,0,30.18,155.89Zm-4.33-1.25Zm1.18,0-.52.14-.24-.13.25-.14Zm-.59-1-.14.52-.24.14V154Zm-1.18,0,.38.38v.28l-.24-.14Zm-.59,1,.52-.14.24.14-.25.14Zm.59,1,.14-.52.24-.14v.28Zm1.18,0-.38-.38V155l.24.14Z"/><path class="cls-110" d="M95.19,110.31l-1.08-.58-.1-.35,1,.56a.21.21,0,1,0,.2-.38l-1.41-.75-.37-1.26.71.38a.2.2,0,0,0,.27-.06.2.2,0,0,0,0-.27l-.42-.68,1.28.3.83,1.36s0,0,0,0a.2.2,0,0,0,.25,0,.21.21,0,0,0,.07-.29l-.61-1,.36.08.64,1,0,0a.23.23,0,0,0,.26,0,.21.21,0,0,0,.07-.29l-.42-.68.49.12a.22.22,0,0,0,.1-.42l-.49-.11.68-.42a.21.21,0,0,0-.22-.36l-1,.64L96,107l1-.62a.21.21,0,0,0-.22-.36l-1.36.84-1.27-.3.68-.43a.21.21,0,0,0,.09-.26.23.23,0,0,0-.22-.18l-.8,0,.9-1,1.59,0a.21.21,0,0,0,.21-.22.21.21,0,0,0-.22-.2l-1.17,0,.25-.27,1.23,0a.21.21,0,0,0,.2-.21.21.21,0,0,0-.22-.21l-.8,0,.35-.36a.22.22,0,0,0,0-.3.21.21,0,0,0-.3,0l-.35.37,0-.81a.21.21,0,0,0-.42,0l0,1.22-.25.27,0-1.17a.22.22,0,0,0-.22-.21.21.21,0,0,0-.21.22l0,1.6-.9.95,0-.81a.21.21,0,0,0-.19-.2.2.2,0,0,0-.26.1l-.38.7-.37-1.25.75-1.4a.21.21,0,0,0-.08-.29.21.21,0,0,0-.29.09l-.55,1L92.1,103l.58-1.07a.21.21,0,0,0-.09-.29.2.2,0,0,0-.28.08l-.38.71-.15-.48a.21.21,0,0,0-.26-.15.22.22,0,0,0-.14.27l.14.48-.7-.38a.21.21,0,0,0-.29.09.2.2,0,0,0,0,.25l.05,0,1.07.58.11.36-1-.56a.21.21,0,0,0-.29.09.2.2,0,0,0,0,.25l0,0L92,104l.38,1.25-.71-.38a.22.22,0,0,0-.27.06.23.23,0,0,0-.05.28l.42.68-1.27-.3-.84-1.36a.21.21,0,1,0-.36.22l.62,1-.36-.09-.64-1a.21.21,0,0,0-.29-.07.22.22,0,0,0-.07.3l.42.67-.49-.11a.21.21,0,0,0-.26.16.21.21,0,0,0,.06.2.31.31,0,0,0,.1,0l.49.12-.68.42a.21.21,0,0,0-.07.29l0,0a.21.21,0,0,0,.26,0l1-.64.36.08-1,.62a.21.21,0,0,0-.07.29l0,0a.2.2,0,0,0,.25,0l1.36-.84,1.28.3-.69.42a.22.22,0,0,0-.08.27.34.34,0,0,0,.06.12.27.27,0,0,0,.15,0l.8,0-.89.95-1.6.05a.21.21,0,0,0-.2.22.22.22,0,0,0,.06.14.23.23,0,0,0,.16.06l1.16,0-.25.27-1.22,0a.22.22,0,0,0-.21.22.26.26,0,0,0,.07.15.2.2,0,0,0,.15.05l.8,0-.34.37a.21.21,0,1,0,.3.29l.35-.37,0,.8a.21.21,0,0,0,.07.15.2.2,0,0,0,.15.06.2.2,0,0,0,.2-.22l0-1.23.25-.26,0,1.17a.2.2,0,0,0,.06.15.28.28,0,0,0,.15.06.23.23,0,0,0,.21-.22l0-1.6.9-1,0,.8a.21.21,0,0,0,.07.15.23.23,0,0,0,.12.06.22.22,0,0,0,.26-.1l.38-.7.37,1.25-.75,1.4a.2.2,0,0,0,0,.25l0,0a.22.22,0,0,0,.29-.09l.56-1,.1.36-.58,1.07a.23.23,0,0,0,0,.25l0,0a.23.23,0,0,0,.29-.09l.37-.7.15.48a.15.15,0,0,0,.06.09.21.21,0,0,0,.2,0,.2.2,0,0,0,.14-.26l-.14-.49.71.38a.2.2,0,0,0,.28-.08A.21.21,0,0,0,95.19,110.31Zm-2.29-3.89Zm.86.81-.47-.25-.08-.26.27.06Zm.27-1.14-.45.28-.27-.06.19-.21Zm-.85-.81v.53L93,106l-.08-.26Zm-1.14.33.48.26.08.26-.28-.06Zm-.27,1.15.46-.28.27.06-.19.21Zm.86.81,0-.53.19-.2.08.26Z"/><path class="cls-111" d="M54.49,77.65l-1.08-.58-.11-.35,1,.56a.21.21,0,1,0,.2-.38l-1.41-.76-.37-1.25.71.38a.21.21,0,0,0,.27-.06.2.2,0,0,0,0-.27l-.42-.68,1.27.3.84,1.36s0,0,0,0a.2.2,0,0,0,.25,0,.21.21,0,0,0,.07-.29l-.61-1,.36.08.64,1,0,0a.21.21,0,0,0,.33-.26l-.42-.68.49.12a.22.22,0,0,0,.25-.16.21.21,0,0,0-.16-.26l-.49-.11.69-.42a.21.21,0,1,0-.22-.36l-1,.64-.36-.08,1-.62a.21.21,0,1,0-.22-.36l-1.36.84-1.27-.3.68-.43a.2.2,0,0,0,.08-.26A.21.21,0,0,0,54,73l-.8,0,.9-1,1.59,0a.2.2,0,0,0,.2-.22.2.2,0,0,0-.21-.2l-1.17,0,.25-.27,1.22,0a.21.21,0,0,0,.21-.21.22.22,0,0,0-.22-.21l-.8,0,.35-.36a.22.22,0,0,0,0-.3.21.21,0,0,0-.3,0l-.35.37,0-.81a.21.21,0,0,0-.22-.2.2.2,0,0,0-.2.22l0,1.22-.25.27,0-1.17A.21.21,0,0,0,54,70a.22.22,0,0,0-.21.22l0,1.6-.9,1,0-.8a.25.25,0,0,0-.45-.11l-.38.7-.38-1.25.76-1.4a.21.21,0,0,0-.09-.29.2.2,0,0,0-.28.09l-.56,1-.1-.36L52,69.26a.22.22,0,0,0-.09-.29.21.21,0,0,0-.29.09l-.38.7-.14-.48a.21.21,0,0,0-.4.12l.14.48-.71-.38a.2.2,0,0,0-.28.09.2.2,0,0,0,0,.25l0,0,1.08.59.11.35-1-.56a.21.21,0,0,0-.28.09.2.2,0,0,0,0,.25l0,0,1.41.76.37,1.25-.7-.38a.21.21,0,0,0-.27.07.2.2,0,0,0-.05.27l.42.68L49.77,73l-.84-1.36a.21.21,0,0,0-.36.22l.61,1-.36-.09-.64-1a.21.21,0,0,0-.29-.06.21.21,0,0,0-.07.29l.42.68-.49-.12a.2.2,0,0,0-.25.16.21.21,0,0,0,.06.2.31.31,0,0,0,.1.05l.49.12-.69.42a.21.21,0,0,0-.07.29s0,0,0,0a.21.21,0,0,0,.26,0l1-.64.36.08-1,.62a.21.21,0,0,0-.07.29s0,0,0,0a.2.2,0,0,0,.25,0l1.36-.84,1.27.3-.68.42a.22.22,0,0,0-.08.27.34.34,0,0,0,.06.12.25.25,0,0,0,.15.05l.8,0-.9,1-1.59,0a.2.2,0,0,0-.2.22.18.18,0,0,0,.06.14.2.2,0,0,0,.15.06l1.17,0-.25.27-1.22,0a.21.21,0,0,0-.14.37.2.2,0,0,0,.15,0l.8,0-.35.37a.21.21,0,1,0,.31.29l.35-.37,0,.8a.21.21,0,0,0,.07.15.19.19,0,0,0,.15.06.21.21,0,0,0,.2-.22l0-1.23.25-.26,0,1.17a.26.26,0,0,0,.07.15.25.25,0,0,0,.15.06.23.23,0,0,0,.21-.22l0-1.6.9-1,0,.8a.21.21,0,0,0,.07.15.23.23,0,0,0,.12.06.22.22,0,0,0,.26-.1l.38-.7.37,1.25L52,77.67a.2.2,0,0,0,0,.25.08.08,0,0,0,0,0,.23.23,0,0,0,.29-.09l.55-1,.11.36-.58,1.07a.2.2,0,0,0,0,.25.1.1,0,0,0,0,0,.21.21,0,0,0,.28-.09l.38-.7.15.48a.19.19,0,0,0,0,.09.23.23,0,0,0,.21,0,.21.21,0,0,0,.14-.26l-.14-.49.7.38a.21.21,0,0,0,.29-.08A.21.21,0,0,0,54.49,77.65ZM52.2,73.76Zm.86.81-.47-.25-.08-.26.27.06Zm.27-1.14-.46.28-.26-.06.19-.21Zm-.86-.81,0,.53-.19.2-.08-.26ZM51.34,73l.48.26.08.26-.28-.06Zm-.27,1.15.46-.28.26.06-.19.21Zm.86.81,0-.53.19-.2.08.26Z"/><path class="cls-112" d="M109.49,156.89l-1.08-.58-.11-.36,1,.56a.21.21,0,0,0,.29-.09.2.2,0,0,0-.08-.28l-1.41-.76-.38-1.25.71.38a.21.21,0,0,0,.27-.07.21.21,0,0,0,0-.27l-.42-.68,1.27.3.84,1.36,0,0a.23.23,0,0,0,.26,0,.21.21,0,0,0,.07-.29l-.62-1,.36.09.64,1,0,0a.21.21,0,0,0,.32-.27l-.42-.68.49.12a.21.21,0,0,0,.26-.16.22.22,0,0,0-.16-.25l-.49-.12.68-.42a.21.21,0,0,0-.22-.36l-1,.64-.36-.08,1-.62a.21.21,0,0,0,.07-.29.22.22,0,0,0-.3-.07l-1.36.84-1.27-.3.69-.42a.22.22,0,0,0,.08-.27.21.21,0,0,0-.22-.17l-.79,0,.89-1,1.59,0a.21.21,0,0,0,.21-.22.21.21,0,0,0-.22-.2l-1.17,0,.26-.27,1.22,0a.21.21,0,0,0,.2-.22.2.2,0,0,0-.22-.2l-.79,0,.34-.37a.21.21,0,0,0,0-.3.22.22,0,0,0-.3,0l-.34.37,0-.8a.21.21,0,0,0-.21-.21.22.22,0,0,0-.21.22l0,1.23-.26.27,0-1.18a.2.2,0,0,0-.22-.2.2.2,0,0,0-.2.21l0,1.6-.89.95,0-.8a.2.2,0,0,0-.19-.2.21.21,0,0,0-.26.09l-.38.71-.37-1.26.76-1.4a.21.21,0,0,0-.38-.2l-.55,1-.11-.35.58-1.08a.21.21,0,0,0-.08-.29.22.22,0,0,0-.29.09l-.38.7-.14-.48a.23.23,0,0,0-.27-.14.21.21,0,0,0-.14.26l.15.49-.71-.38a.21.21,0,0,0-.29.08.23.23,0,0,0,0,.26l0,0,1.08.58.1.35-1-.55a.21.21,0,0,0-.29.08.23.23,0,0,0,0,.26l0,0,1.4.76.38,1.25-.71-.38a.25.25,0,0,0-.32.33l.42.68-1.27-.3-.83-1.35a.22.22,0,0,0-.3-.07.21.21,0,0,0-.06.29l.61,1-.36-.08-.64-1a.21.21,0,1,0-.36.22l.42.68-.49-.12a.23.23,0,0,0-.26.16.21.21,0,0,0,.07.2.15.15,0,0,0,.09.06l.49.11-.68.42a.22.22,0,0,0-.07.3l0,0a.21.21,0,0,0,.26,0l1-.64.36.09-1,.61a.21.21,0,0,0-.06.29l0,.05a.22.22,0,0,0,.26,0l1.36-.84,1.27.3-.69.43a.21.21,0,0,0-.08.26.19.19,0,0,0,.07.12.19.19,0,0,0,.15.06l.79,0-.89,1-1.59,0a.22.22,0,0,0-.21.22.21.21,0,0,0,.07.15.2.2,0,0,0,.15.06l1.17,0-.26.27-1.22,0a.2.2,0,0,0-.2.22.18.18,0,0,0,.06.14.22.22,0,0,0,.15.06l.8,0-.34.36a.21.21,0,1,0,.31.29l.34-.36,0,.8a.26.26,0,0,0,.07.15.2.2,0,0,0,.15,0,.21.21,0,0,0,.21-.21l0-1.23.25-.27,0,1.18a.22.22,0,0,0,.06.14.23.23,0,0,0,.16.06.21.21,0,0,0,.2-.22l0-1.59.9-.95,0,.8a.26.26,0,0,0,.07.15.18.18,0,0,0,.12.05.2.2,0,0,0,.26-.1l.38-.7.38,1.25-.76,1.41a.2.2,0,0,0,0,.25l0,0a.2.2,0,0,0,.28-.08l.56-1,.11.35-.58,1.08a.2.2,0,0,0,0,.25l0,0a.21.21,0,0,0,.29-.08l.38-.71.14.48a.21.21,0,0,0,.26.15.22.22,0,0,0,.15-.27l-.15-.48.71.38a.21.21,0,0,0,.29-.09A.2.2,0,0,0,109.49,156.89ZM107.2,153Zm.86.81-.48-.26-.08-.26.28.06Zm.27-1.15-.46.28-.27-.06.2-.21Zm-.86-.81,0,.54-.19.2-.08-.27Zm-1.13.34.47.25.08.26-.27-.06Zm-.27,1.14.45-.28.27.06-.19.21Zm.85.81v-.53l.19-.2.08.27Z"/><path class="cls-113" d="M51.13,198.46l-1.08-.58-.11-.35,1,.55a.2.2,0,0,0,.28-.08.21.21,0,0,0-.08-.29L49.77,197l-.37-1.25.7.38a.25.25,0,0,0,.32-.33l-.42-.68,1.27.3.84,1.35,0,.05a.23.23,0,0,0,.26,0,.21.21,0,0,0,.07-.29l-.61-1,.36.08.64,1,0,0a.21.21,0,0,0,.33-.26l-.42-.68.49.12a.22.22,0,0,0,.25-.16.21.21,0,0,0-.16-.26l-.49-.11.69-.42a.21.21,0,1,0-.23-.36l-1,.64-.36-.09,1-.61a.21.21,0,1,0-.22-.36l-1.36.84-1.27-.3.68-.43a.25.25,0,0,0-.13-.44l-.8,0,.9-.95,1.59,0a.21.21,0,0,0,.2-.22.21.21,0,0,0-.21-.21l-1.17,0,.25-.27,1.22,0a.21.21,0,0,0,.21-.21.21.21,0,0,0-.22-.21l-.8,0,.35-.36a.22.22,0,0,0,0-.3.21.21,0,0,0-.3,0l-.35.37,0-.81a.21.21,0,0,0-.42,0l0,1.22-.25.27,0-1.17a.23.23,0,0,0-.22-.21.21.21,0,0,0-.21.22l0,1.6-.9.95,0-.81a.25.25,0,0,0-.45-.1l-.38.7-.37-1.25.75-1.4a.21.21,0,1,0-.37-.2l-.56,1-.1-.36.58-1.07a.22.22,0,0,0-.09-.29.21.21,0,0,0-.29.08l-.37.71-.15-.48a.21.21,0,0,0-.26-.15.22.22,0,0,0-.14.27l.14.48-.71-.38a.2.2,0,0,0-.28.09.2.2,0,0,0,0,.25l0,0,1.08.58.11.36-1-.56a.2.2,0,0,0-.28.09.2.2,0,0,0,0,.25l0,0,1.41.76.37,1.25-.7-.38a.21.21,0,0,0-.27.06.22.22,0,0,0-.05.28l.42.68-1.27-.3-.84-1.36a.21.21,0,1,0-.36.22l.62,1-.36-.09-.65-1a.21.21,0,0,0-.29-.07.22.22,0,0,0-.07.3l.42.67-.48-.11a.21.21,0,0,0-.26.16.21.21,0,0,0,.06.2l.1.05.49.12-.69.42a.21.21,0,0,0-.06.29l0,0a.21.21,0,0,0,.26,0l1-.64.36.08-1,.62a.21.21,0,0,0-.07.29l0,0a.2.2,0,0,0,.25,0l1.36-.84,1.27.3-.68.42a.22.22,0,0,0-.08.27.34.34,0,0,0,.06.12.25.25,0,0,0,.15,0l.8,0-.9.95-1.59.05a.2.2,0,0,0-.2.22.18.18,0,0,0,.06.14.22.22,0,0,0,.15.06l1.17,0-.25.27-1.22,0a.22.22,0,0,0-.21.22.21.21,0,0,0,.07.15.25.25,0,0,0,.15.06l.8,0-.35.37a.21.21,0,0,0,.31.29l.35-.37,0,.8a.21.21,0,0,0,.07.15.2.2,0,0,0,.15.06.21.21,0,0,0,.2-.22l0-1.22.25-.27,0,1.17a.26.26,0,0,0,.07.15.2.2,0,0,0,.15.06.22.22,0,0,0,.21-.22l0-1.6.9-.95,0,.8a.2.2,0,0,0,.07.15.23.23,0,0,0,.12.06.21.21,0,0,0,.26-.1l.38-.7.37,1.25-.75,1.4a.21.21,0,0,0,0,.26l0,0a.22.22,0,0,0,.29-.09l.55-1,.11.36-.58,1.07a.21.21,0,0,0,0,.26l0,0a.2.2,0,0,0,.28-.09l.38-.7.15.48a.19.19,0,0,0,0,.09.21.21,0,0,0,.35-.21l-.14-.48.7.38a.22.22,0,0,0,.21-.38Zm-1.43-3.08-.47-.25-.08-.27.27.07Zm.27-1.15-.46.29-.26-.07.19-.2Zm-.86-.81,0,.54-.19.2-.08-.27Zm-1.13.34.48.26.07.26-.27-.06Zm-.27,1.15.46-.28.26.06-.19.21Zm.86.81,0-.53.19-.2.08.26Z"/><path class="cls-114" d="M58.71,141.2l-.86.23-.24-.14.83-.22a.15.15,0,0,0,.11-.19.15.15,0,0,0-.19-.1l-1.12.3-.83-.48.57-.15a.16.16,0,0,0,.11-.17.16.16,0,0,0-.11-.17l-.57-.15.83-.47,1.12.3h0a.15.15,0,0,0,.15-.11.16.16,0,0,0-.11-.19l-.82-.22.23-.14.86.23h0a.16.16,0,0,0,.15-.12.16.16,0,0,0-.11-.19l-.56-.15.31-.18a.15.15,0,1,0-.15-.26l-.32.18.15-.57a.16.16,0,0,0-.3-.08l-.23.87-.23.13.22-.82a.15.15,0,0,0-.11-.19.15.15,0,0,0-.19.11l-.3,1.12-.82.48.15-.57a.16.16,0,0,0-.09-.18.15.15,0,0,0-.2,0l-.42.41v-1l.83-.82a.16.16,0,0,0-.22-.22l-.61.61v-.27l.63-.63a.16.16,0,0,0,0-.22.15.15,0,0,0-.21,0l-.42.41v-.36a.15.15,0,0,0-.15-.16.16.16,0,0,0-.15.16v.36l-.42-.41a.16.16,0,0,0-.22.22l.64.63V138l-.61-.61a.16.16,0,0,0-.22.22l.83.83v.95L55,139a.15.15,0,0,0-.2,0,.16.16,0,0,0-.09.18l.15.56-.82-.47-.3-1.12a.16.16,0,1,0-.3.08l.22.82-.23-.14-.23-.85a.16.16,0,1,0-.3.08l.15.56-.32-.19a.16.16,0,0,0-.21.06.15.15,0,0,0,.06.21l.32.19-.57.15a.15.15,0,0,0-.11.19.16.16,0,0,0,.15.11h0l.86-.23.24.14-.83.22a.16.16,0,0,0-.11.19.15.15,0,0,0,.15.11h0l1.13-.3.82.47-.56.15a.16.16,0,0,0-.12.17.15.15,0,0,0,.12.17l.56.15-.83.48-1.12-.3a.15.15,0,0,0-.19.11.15.15,0,0,0,.11.18l.82.23-.23.13-.86-.23a.16.16,0,1,0-.08.3l.56.15-.31.18a.15.15,0,0,0,.08.29l.08,0,.31-.19-.15.57a.16.16,0,0,0,.11.19h0a.15.15,0,0,0,.15-.11l.23-.87.24-.13-.23.83a.15.15,0,0,0,.11.18h0a.16.16,0,0,0,.15-.11l.3-1.13.83-.48-.15.57a.16.16,0,0,0,.09.18.14.14,0,0,0,.09,0,.15.15,0,0,0,.11,0l.41-.41v.95l-.82.82a.16.16,0,0,0,0,.22.17.17,0,0,0,.22,0l.6-.61v.27l-.63.63a.16.16,0,0,0,0,.22.15.15,0,0,0,.22,0l.41-.41v.37a.15.15,0,0,0,.15.15.16.16,0,0,0,.16-.15v-.37l.41.41a.15.15,0,0,0,.22,0,.16.16,0,0,0,0-.22l-.63-.63v-.27l.6.61a.17.17,0,0,0,.22,0,.16.16,0,0,0,0-.22l-.82-.82v-1l.41.42a.15.15,0,0,0,.11,0,.14.14,0,0,0,.09,0,.16.16,0,0,0,.09-.18l-.15-.56.83.47.3,1.12a.16.16,0,0,0,.15.12h0a.15.15,0,0,0,.11-.19l-.22-.82.23.14.23.86a.16.16,0,0,0,.15.11h0a.15.15,0,0,0,.11-.18l-.15-.57.31.19.08,0a.14.14,0,0,0,.13-.08.15.15,0,0,0-.05-.21l-.32-.18.56-.16a.14.14,0,0,0,.11-.18A.15.15,0,0,0,58.71,141.2Zm-3.16-.92Zm.86,0-.38.1-.17-.1.18-.1Zm-.43-.74-.1.38-.17.1v-.21Zm-.86,0,.28.27v.2l-.18-.1Zm-.43.74.38-.1.17.1-.17.1Zm.43.75.1-.38.18-.1v.2Zm.86,0-.27-.28v-.2l.17.1Z"/><path class="cls-115" d="M93.84,130l-.86.23-.24-.13.83-.22a.16.16,0,0,0-.08-.3l-1.12.3-.83-.48.57-.15a.16.16,0,0,0,.11-.17.15.15,0,0,0-.11-.16l-.57-.15.83-.48,1.12.3h0a.16.16,0,0,0,0-.31l-.82-.22.23-.13.86.23h0A.15.15,0,0,0,94,128a.16.16,0,0,0-.11-.19l-.56-.15.31-.18a.15.15,0,0,0,.06-.21.15.15,0,0,0-.21-.06l-.32.18.15-.56a.16.16,0,0,0-.11-.19.16.16,0,0,0-.19.11l-.23.86-.23.14.22-.83a.16.16,0,1,0-.3-.08l-.3,1.12-.82.48.15-.56a.16.16,0,0,0-.09-.19.17.17,0,0,0-.21,0l-.41.41v-.95l.82-.82a.16.16,0,0,0,0-.22.14.14,0,0,0-.21,0l-.61.6v-.27l.63-.63a.16.16,0,0,0-.22-.22l-.41.41v-.36a.15.15,0,0,0-.15-.15.14.14,0,0,0-.15.15v.37l-.42-.42a.16.16,0,0,0-.22.22l.64.63v.27l-.61-.6a.16.16,0,0,0-.22.22l.83.82v.95l-.42-.41a.15.15,0,0,0-.2,0,.16.16,0,0,0-.09.19l.15.56-.82-.48-.3-1.12a.16.16,0,0,0-.19-.11.15.15,0,0,0-.11.19l.22.82-.24-.13-.23-.86a.15.15,0,0,0-.18-.11.15.15,0,0,0-.11.19l.15.56-.32-.18a.16.16,0,0,0-.21,0,.16.16,0,0,0,.06.22l.31.18-.56.15a.16.16,0,0,0-.11.19.15.15,0,0,0,.15.11h0l.86-.23.24.13-.83.22a.16.16,0,0,0-.11.19.16.16,0,0,0,.15.12h0l1.12-.3.83.48-.57.15a.16.16,0,0,0-.11.17.15.15,0,0,0,.11.16l.57.15-.83.48-1.12-.3a.16.16,0,1,0-.08.3l.82.22-.23.13-.86-.23a.16.16,0,0,0-.19.11.15.15,0,0,0,.11.19l.56.15-.31.18a.16.16,0,0,0-.06.22.17.17,0,0,0,.13.07.11.11,0,0,0,.08,0l.32-.18-.15.56a.16.16,0,0,0,.11.19h0a.16.16,0,0,0,.15-.12l.23-.86.23-.14-.22.83a.16.16,0,0,0,.11.19h0a.16.16,0,0,0,.15-.12l.3-1.12.82-.48-.15.57a.16.16,0,0,0,.09.18.17.17,0,0,0,.1,0,.16.16,0,0,0,.11,0l.41-.41v1l-.82.83a.14.14,0,0,0,0,.21.14.14,0,0,0,.21,0l.61-.6v.27l-.63.63a.16.16,0,0,0,0,.22.17.17,0,0,0,.22,0l.41-.41v.36a.16.16,0,0,0,.15.16.15.15,0,0,0,.15-.16V132l.42.42a.17.17,0,0,0,.22,0,.16.16,0,0,0,0-.22l-.64-.63v-.27l.61.6a.15.15,0,0,0,.22,0,.16.16,0,0,0,0-.22l-.83-.82v-1l.42.41a.15.15,0,0,0,.2,0,.16.16,0,0,0,.09-.18l-.15-.57.83.48.3,1.12a.15.15,0,0,0,.14.12h0a.15.15,0,0,0,.11-.19l-.22-.82.24.13.23.86a.16.16,0,0,0,.15.12h0a.15.15,0,0,0,.1-.19l-.15-.56.32.18a.11.11,0,0,0,.08,0,.15.15,0,0,0,.13-.07.15.15,0,0,0-.06-.21l-.31-.19.56-.15a.16.16,0,1,0-.08-.3Zm-2.3-.91-.38.1-.17-.1.18-.11Zm-.43-.75-.1.38-.17.1v-.2Zm-.86,0,.28.28v.2l-.18-.11Zm-.43.75.38-.11.17.1-.17.11Zm.43.74.1-.38.18-.1v.2Zm.86,0-.27-.28v-.2l.17.11Z"/><path class="cls-116" d="M29.6,122l-.34.5-.18,0,.33-.48a.11.11,0,0,0,0-.15.11.11,0,0,0-.15,0l-.44.65-.63.12.22-.33a.09.09,0,0,0,0-.13.11.11,0,0,0-.13,0l-.35.17.21-.61.71-.34h0a.12.12,0,0,0,0-.13.11.11,0,0,0-.14,0l-.52.25.06-.17.54-.26s0,0,0,0a.1.1,0,0,0,0-.12.11.11,0,0,0-.14-.05l-.36.17.09-.23c0-.06,0-.12-.07-.13a.1.1,0,0,0-.13.06l-.08.23L28,120.6a.1.1,0,1,0-.18.09l.26.54-.06.18-.25-.52a.1.1,0,0,0-.14,0,.09.09,0,0,0-.05.14l.34.71-.21.61-.17-.36a.1.1,0,0,0-.13,0,.11.11,0,0,0-.1.09l0,.39-.43-.48.06-.79a.1.1,0,0,0-.1-.11.12.12,0,0,0-.11.1l0,.57-.12-.13,0-.61a.1.1,0,0,0-.09-.11.1.1,0,0,0-.11.1l0,.39-.17-.19a.11.11,0,0,0-.14,0,.1.1,0,0,0,0,.15l.16.19-.4,0a.11.11,0,1,0,0,.21l.6,0,.12.14-.58,0s-.1,0-.11.09a.12.12,0,0,0,.1.12l.79,0,.42.49-.4,0a.11.11,0,0,0-.11.09.1.1,0,0,0,0,.13l.32.22-.63.12-.65-.44a.11.11,0,0,0-.15,0,.1.1,0,0,0,0,.14l.48.33-.18,0-.5-.34a.1.1,0,0,0-.14,0,.1.1,0,0,0,0,.14l.33.22-.24,0a.11.11,0,0,0-.09.12.11.11,0,0,0,.13.09l.24,0-.22.33a.1.1,0,0,0,0,.14.09.09,0,0,0,.12,0,0,0,0,0,0,0,0l.34-.5.18,0-.33.48a.1.1,0,0,0,0,.14.11.11,0,0,0,.13,0l0,0,.44-.66.63-.12-.22.33a.11.11,0,0,0,0,.14.1.1,0,0,0,.13,0l.36-.17-.22.61-.7.34a.1.1,0,0,0-.05.14.1.1,0,0,0,.14,0l.52-.25-.06.17-.55.27a.1.1,0,0,0,.1.18l.35-.17-.08.24a.1.1,0,0,0,.06.13.14.14,0,0,0,.11,0l0,0,.08-.23.17.36a.1.1,0,0,0,.14,0s0,0,0,0a.11.11,0,0,0,0-.13l-.26-.54.06-.17.25.52a.11.11,0,0,0,.14,0l0,0a.1.1,0,0,0,0-.12l-.35-.71.22-.61.17.35a.11.11,0,0,0,.12.06.1.1,0,0,0,.1-.1l0-.39.42.49-.05.78a.1.1,0,0,0,.09.11l.08,0a.11.11,0,0,0,0-.07l.05-.58.12.14-.05.6a.1.1,0,0,0,.1.11l.07,0a.12.12,0,0,0,0-.08l0-.39.16.19a.11.11,0,1,0,.16-.14l-.16-.19.39,0,.08,0a.11.11,0,0,0,0-.07.11.11,0,0,0-.09-.12l-.61,0-.12-.14.58,0a.08.08,0,0,0,.08,0,.09.09,0,0,0,0-.07.1.1,0,0,0-.09-.11l-.79-.06-.42-.49.39,0,.08,0a.09.09,0,0,0,0-.06.11.11,0,0,0,0-.14l-.33-.22.64-.12.65.45a.1.1,0,0,0,.12,0l0,0a.11.11,0,0,0,0-.15l-.47-.32.18,0,.5.34a.09.09,0,0,0,.12,0l0,0a.11.11,0,0,0,0-.15l-.32-.22.24,0,.05,0a.09.09,0,0,0,0-.1.1.1,0,0,0-.12-.08l-.24.05.22-.33a.11.11,0,0,0-.18-.12Zm-1.58.55-.15.22-.14,0,.05-.13Zm-.55-.19.11.24,0,.13-.09-.11Zm-.45.38.27,0,.09.1-.14,0Zm.11.57.15-.22.14,0-.05.13Zm.55.19-.11-.24,0-.12.09.1Zm.45-.38-.27,0-.09-.1.14,0Z"/><path class="cls-117" d="M19.06,185l-.34.5-.18,0,.32-.48a.1.1,0,0,0-.17-.12l-.44.66-.64.12.22-.33a.11.11,0,0,0,0-.14.1.1,0,0,0-.13,0l-.36.17.21-.61.71-.34s0,0,0,0a.1.1,0,0,0,0-.12.11.11,0,0,0-.14-.05l-.52.25.06-.17.54-.26,0,0a.11.11,0,0,0,0-.12.1.1,0,0,0-.14-.05l-.35.17.08-.23a.11.11,0,0,0-.07-.14.1.1,0,0,0-.13.07l-.08.23-.17-.35a.1.1,0,0,0-.14,0,.09.09,0,0,0-.05.14l.26.54-.06.17-.25-.52A.11.11,0,0,0,17,184l.34.71-.21.61L17,185a.11.11,0,0,0-.13-.06.11.11,0,0,0-.09.1l0,.39-.42-.48.05-.79a.1.1,0,0,0-.09-.11.11.11,0,0,0-.12.1l0,.57-.12-.14,0-.6a.12.12,0,0,0-.1-.11.1.1,0,0,0-.11.1l0,.39-.16-.19a.11.11,0,0,0-.15,0,.1.1,0,0,0,0,.15l.16.19-.4,0c-.05,0-.1,0-.11.1a.12.12,0,0,0,.1.11l.6,0,.12.14-.58,0s-.1,0-.11.09a.12.12,0,0,0,.1.12l.79.05.42.49-.4,0a.11.11,0,0,0-.11.09.1.1,0,0,0,0,.13l.32.22-.63.12-.65-.44a.11.11,0,0,0-.15,0,.1.1,0,0,0,0,.14l.48.33-.18,0-.5-.34a.1.1,0,0,0-.14,0,.1.1,0,0,0,0,.14l.33.22-.24,0a.11.11,0,0,0-.09.12.12.12,0,0,0,.13.09l.24-.05-.22.33a.1.1,0,0,0,0,.14.09.09,0,0,0,.12,0l0,0,.34-.51.18,0-.32.48a.11.11,0,0,0,0,.15.12.12,0,0,0,.13,0l0,0,.44-.65.64-.13-.23.33a.11.11,0,0,0,0,.14.1.1,0,0,0,.13,0l.36-.17-.22.61-.7.35a.09.09,0,0,0-.05.14.1.1,0,0,0,.14,0l.52-.25-.06.17-.54.27a.1.1,0,0,0-.05.14.1.1,0,0,0,.14,0l.35-.17-.08.24a.1.1,0,0,0,.06.13.14.14,0,0,0,.11,0l0,0,.08-.23.17.36a.1.1,0,0,0,.14,0h0a.12.12,0,0,0,0-.13l-.26-.54.06-.17.25.52a.11.11,0,0,0,.14,0l0,0a.1.1,0,0,0,0-.12l-.34-.71.21-.61.17.36a.12.12,0,0,0,.13.05l.06,0a.09.09,0,0,0,0-.07l0-.39.43.49-.06.78a.1.1,0,0,0,.1.11.07.07,0,0,0,.07,0,.1.1,0,0,0,0-.07l0-.58.12.14,0,.6a.09.09,0,0,0,.09.11l.08,0a.11.11,0,0,0,0-.07l0-.4.17.19a.1.1,0,0,0,.14,0,.1.1,0,0,0,0-.15l-.16-.19.4,0a.06.06,0,0,0,.07,0,.1.1,0,0,0,0-.07.1.1,0,0,0-.1-.11l-.6,0-.12-.14.58.05a.09.09,0,0,0,.07,0,.1.1,0,0,0,0-.07.1.1,0,0,0-.1-.11l-.79-.06-.42-.49.4,0,.07,0,0-.06a.1.1,0,0,0,0-.13l-.32-.23.63-.12.65.45a.12.12,0,0,0,.13,0l0,0a.11.11,0,0,0,0-.15l-.48-.32.18,0,.5.34a.11.11,0,0,0,.13,0,0,0,0,0,1,0,0,.11.11,0,0,0,0-.15l-.33-.22.24-.05.05,0a.12.12,0,0,0,0-.1.11.11,0,0,0-.13-.08l-.24.05.22-.33a.11.11,0,0,0,0-.15A.1.1,0,0,0,19.06,185Zm-1.59.54-.15.22-.13,0,0-.13Zm-.55-.19.12.24-.05.13-.09-.1Zm-.44.38.26,0,.09.11-.13,0Zm.11.58.15-.22.13,0,0,.13Zm.55.19L17,186.3l.05-.13.09.11Zm.44-.38-.26,0-.09-.1.13,0Z"/><path class="cls-118" d="M108,133l-.34.5-.18,0,.33-.48a.1.1,0,0,0,0-.14.1.1,0,0,0-.14,0l-.45.66-.63.12.22-.33a.11.11,0,0,0,0-.14.09.09,0,0,0-.13,0l-.35.17.21-.61.71-.34,0,0a.1.1,0,0,0,0-.12.1.1,0,0,0-.14,0l-.52.25.06-.17.54-.27h0a.11.11,0,0,0,0-.13.1.1,0,0,0-.14,0l-.36.17.08-.24a.1.1,0,0,0-.19-.07l-.08.24-.18-.36a.11.11,0,0,0-.14,0,.1.1,0,0,0,0,.14l.26.55-.06.17-.25-.52a.11.11,0,0,0-.14-.05.11.11,0,0,0-.05.14l.34.71-.21.61-.17-.36a.12.12,0,0,0-.13,0,.12.12,0,0,0-.1.1l0,.39-.43-.49.06-.78a.1.1,0,0,0-.1-.11s-.1,0-.11.09l0,.58-.12-.14,0-.6a.1.1,0,0,0-.09-.11.11.11,0,0,0-.12.09l0,.4-.17-.19a.1.1,0,0,0-.14,0,.1.1,0,0,0,0,.15l.16.19-.4,0a.1.1,0,0,0-.11.09.12.12,0,0,0,.1.12l.6,0,.12.14-.58,0a.09.09,0,0,0-.11.09.1.1,0,0,0,.1.11l.78.06.43.49-.4,0a.11.11,0,0,0-.11.08.11.11,0,0,0,0,.14l.32.22-.63.12-.65-.44a.1.1,0,1,0-.12.17l.48.32-.18,0-.5-.34a.1.1,0,0,0-.12.17l.33.22-.24.05a.1.1,0,0,0-.09.12.11.11,0,0,0,.13.08l.24,0-.22.32a.11.11,0,0,0,0,.15.09.09,0,0,0,.12,0,0,0,0,0,0,0,0l.34-.5.18,0-.33.48a.1.1,0,0,0,0,.14.11.11,0,0,0,.13,0l0,0,.44-.65.63-.12-.22.33a.09.09,0,0,0,0,.13.1.1,0,0,0,.13,0l.36-.17-.22.61-.7.34a.1.1,0,0,0,0,.14.1.1,0,0,0,.14,0l.52-.25-.06.17-.55.26a.11.11,0,0,0,0,.14.11.11,0,0,0,.14,0l.36-.17-.08.23a.11.11,0,0,0,.06.14.14.14,0,0,0,.11,0l0-.05.08-.23.17.35a.11.11,0,0,0,.14.05h0a.11.11,0,0,0,0-.13l-.26-.54.06-.18.25.53a.1.1,0,0,0,.14,0h0a.11.11,0,0,0,0-.13l-.35-.71.22-.61.17.36a.09.09,0,0,0,.12.05l.07,0a.09.09,0,0,0,0-.07l0-.4.42.49,0,.79c0,.05,0,.1.09.11a.11.11,0,0,0,.08,0s0,0,0-.07l0-.57.12.13,0,.6a.12.12,0,0,0,.1.12.11.11,0,0,0,.08,0,.09.09,0,0,0,0-.07l0-.39.16.18a.1.1,0,0,0,.15,0,.1.1,0,0,0,0-.14l-.16-.19.39,0a.11.11,0,0,0,.08,0,.16.16,0,0,0,0-.07.1.1,0,0,0-.1-.11l-.6-.05-.12-.13.57,0a.11.11,0,0,0,.08,0s0,0,0-.07a.1.1,0,0,0-.1-.11l-.79-.06-.42-.48.4,0a.06.06,0,0,0,.07,0,.21.21,0,0,0,0-.06.11.11,0,0,0,0-.13l-.33-.22.64-.12.65.44a.11.11,0,0,0,.13,0,0,0,0,0,0,0,0,.1.1,0,0,0,0-.14l-.48-.33.18,0,.5.34a.09.09,0,0,0,.12,0,0,0,0,0,0,0,0,.1.1,0,0,0,0-.14l-.32-.22.24-.05,0,0a.1.1,0,0,0,0-.1.1.1,0,0,0-.12-.09l-.24.05.22-.33a.1.1,0,0,0,0-.14A.11.11,0,0,0,108,133Zm-1.58.54-.15.22-.13,0,0-.13Zm-.55-.19.11.24,0,.13-.09-.11Zm-.44.38.26,0,.09.1-.14,0Zm.11.57.15-.22.13,0,0,.13Zm.55.2-.12-.24,0-.13.09.1Zm.44-.39h-.27l-.09-.11.14,0Z"/><path class="cls-119" d="M85.75,73.25l-.34.5-.18,0,.32-.48a.1.1,0,0,0,0-.14.11.11,0,0,0-.15,0l-.44.66L84.3,74l.23-.33a.12.12,0,0,0-.15-.17l-.36.17.21-.61.71-.34,0,0a.11.11,0,0,0,0-.12.1.1,0,0,0-.14-.05l-.52.25.06-.17.55-.27h0a.1.1,0,0,0,0-.13.1.1,0,0,0-.14,0l-.35.17.08-.24a.1.1,0,0,0-.06-.13.11.11,0,0,0-.14.06l-.08.24-.17-.36a.11.11,0,1,0-.19.09l.27.55-.06.17-.26-.52a.11.11,0,0,0-.14-.05.11.11,0,0,0,0,.14L84,73l-.21.61-.18-.36a.12.12,0,0,0-.22,0l0,.39L83,73.15l.06-.78a.1.1,0,0,0-.1-.11.1.1,0,0,0-.11.09l0,.58-.12-.14,0-.6a.1.1,0,0,0-.1-.11.1.1,0,0,0-.11.1l0,.39-.16-.19a.11.11,0,1,0-.16.14l.16.19-.39,0a.1.1,0,0,0-.11.09.1.1,0,0,0,.09.12l.61,0,.12.14-.58,0a.1.1,0,0,0-.11.09.1.1,0,0,0,.09.12l.79.05.42.49-.4,0a.1.1,0,0,0-.1.08.11.11,0,0,0,0,.14l.33.22-.64.12-.65-.44a.1.1,0,0,0-.14,0,.11.11,0,0,0,0,.15l.48.32-.18,0-.5-.34a.1.1,0,0,0-.14,0,.1.1,0,0,0,0,.14l.32.22-.24,0a.09.09,0,0,0-.08.12.09.09,0,0,0,.12.08l.24,0-.22.33a.1.1,0,0,0,0,.14.09.09,0,0,0,.12,0,0,0,0,0,0,0,0l.34-.5.18,0-.32.48a.1.1,0,0,0,0,.14.1.1,0,0,0,.13,0s0,0,0,0l.44-.66.64-.12-.23.33a.11.11,0,0,0,0,.14.1.1,0,0,0,.13,0l.36-.17-.21.61-.71.34a.11.11,0,0,0,0,.14.1.1,0,0,0,.14,0l.52-.25-.06.17-.54.27a.09.09,0,0,0-.05.14.11.11,0,0,0,.14,0l.35-.18-.08.24a.1.1,0,0,0,.07.13.12.12,0,0,0,.1,0l0,0,.08-.24.17.36a.11.11,0,0,0,.14.05l0,0a.11.11,0,0,0,0-.12l-.26-.55.06-.17.25.52a.11.11,0,0,0,.14,0h0a.11.11,0,0,0,0-.13l-.35-.71.22-.61.17.36a.1.1,0,0,0,.13,0l.06,0a.11.11,0,0,0,0-.07l0-.4.42.49,0,.78a.11.11,0,0,0,.09.12.11.11,0,0,0,.08,0,.16.16,0,0,0,0-.07l0-.58.12.14,0,.6a.12.12,0,0,0,.1.12.11.11,0,0,0,.08,0,.09.09,0,0,0,0-.07l0-.39.16.18a.1.1,0,0,0,.15,0,.09.09,0,0,0,0-.14l-.16-.19.39,0a.11.11,0,0,0,.08,0s0,0,0-.07a.1.1,0,0,0-.1-.11l-.6,0-.12-.14.57,0a.11.11,0,0,0,.08,0s0,0,0-.07a.12.12,0,0,0-.1-.11l-.79-.06-.42-.48.4,0a.09.09,0,0,0,.07,0,.09.09,0,0,0,0-.06.11.11,0,0,0,0-.13l-.32-.22.63-.12.65.44a.11.11,0,0,0,.13,0l0,0a.1.1,0,0,0,0-.14L85.27,74l.18,0,.5.34a.11.11,0,0,0,.13,0,0,0,0,0,0,0,0,.1.1,0,0,0,0-.14l-.33-.22.24,0,0,0a.13.13,0,0,0,0-.1.12.12,0,0,0-.13-.09l-.24,0,.22-.33a.1.1,0,0,0,0-.14A.09.09,0,0,0,85.75,73.25Zm-1.59.54L84,74l-.13,0,.05-.13Zm-.55-.19.12.24,0,.13-.09-.11Zm-.44.38.27,0,.09.11-.14,0Zm.11.58.15-.22.13,0,0,.13Zm.55.19-.11-.24,0-.13.09.11Zm.44-.38-.26,0-.09-.1.13,0Z"/><path class="cls-120" d="M59.59,36.82l-.34.5-.18,0,.33-.48a.1.1,0,0,0,0-.14.11.11,0,0,0-.15,0l-.44.65-.63.12.22-.33a.09.09,0,0,0,0-.13.1.1,0,0,0-.13,0l-.35.17.21-.61.71-.34h0a.11.11,0,0,0,0-.13.11.11,0,0,0-.14,0l-.52.25.06-.17.55-.26,0,0a.1.1,0,0,0,0-.12.11.11,0,0,0-.14-.05l-.36.17.08-.23a.11.11,0,0,0-.06-.14.09.09,0,0,0-.13.07l-.09.23L58,35.44a.1.1,0,0,0-.14,0,.11.11,0,0,0,0,.14l.27.54-.06.17-.26-.52a.11.11,0,0,0-.14,0,.1.1,0,0,0,0,.14l.34.71-.21.61-.17-.35a.12.12,0,0,0-.13-.06.13.13,0,0,0-.1.1l0,.39-.42-.49.06-.78a.1.1,0,0,0-.1-.11.1.1,0,0,0-.11.09l0,.58-.12-.14,0-.6a.1.1,0,0,0-.09-.11.12.12,0,0,0-.12.1l0,.39L56.15,36a.1.1,0,0,0-.14,0,.11.11,0,0,0,0,.15l.17.19-.4,0a.1.1,0,0,0-.11.1.12.12,0,0,0,.1.11l.6,0,.12.14-.58,0a.1.1,0,0,0-.11.09.12.12,0,0,0,.1.12l.78,0,.43.49-.4,0a.11.11,0,0,0-.11.08.11.11,0,0,0,0,.14l.32.22-.63.12-.65-.44a.11.11,0,0,0-.15,0,.1.1,0,0,0,0,.14l.48.32-.18,0-.5-.34a.11.11,0,0,0-.15,0,.1.1,0,0,0,0,.14l.33.22-.25,0a.11.11,0,0,0,0,.21l.25-.05-.22.33a.1.1,0,0,0,0,.14.1.1,0,0,0,.13,0l0,0,.34-.5.18,0-.33.48a.1.1,0,0,0,0,.14.11.11,0,0,0,.13,0v0l.45-.66L57,38l-.22.33a.11.11,0,0,0,0,.14.09.09,0,0,0,.13,0l.35-.17-.21.61-.71.34a.11.11,0,0,0-.05.14.1.1,0,0,0,.14,0l.52-.25-.06.17-.54.27a.11.11,0,0,0-.05.14.11.11,0,0,0,.14.05l.36-.18-.08.24a.1.1,0,0,0,.06.13.09.09,0,0,0,.1,0,.05.05,0,0,0,0,0L57,39.7l.18.36a.11.11,0,0,0,.14,0l0,0a.1.1,0,0,0,0-.12l-.27-.55.06-.17.26.52a.1.1,0,0,0,.14,0h0a.11.11,0,0,0,0-.13L57.25,39l.21-.61.18.36a.09.09,0,0,0,.12.05l.06,0a.13.13,0,0,0,0-.07l0-.4.42.49-.06.78a.12.12,0,0,0,.1.12.11.11,0,0,0,.08,0,.09.09,0,0,0,0-.07l0-.58.12.14,0,.6a.12.12,0,0,0,.1.12.09.09,0,0,0,.07,0,.1.1,0,0,0,0-.07l0-.39.16.18a.1.1,0,0,0,.15,0,.11.11,0,0,0,0-.14L59,39.22l.4,0a.11.11,0,0,0,.08,0,.09.09,0,0,0,0-.07.1.1,0,0,0-.09-.11l-.61,0-.12-.13.58,0a.11.11,0,0,0,.08,0,.09.09,0,0,0,0-.07.1.1,0,0,0-.1-.11l-.78-.06-.42-.49.39,0a.08.08,0,0,0,.08,0s0,0,0-.06a.1.1,0,0,0,0-.13l-.32-.22.63-.12.65.44a.1.1,0,0,0,.13,0l0,0a.1.1,0,0,0,0-.14l-.48-.33.18,0,.5.34a.12.12,0,0,0,.13,0l0,0a.1.1,0,0,0,0-.14l-.33-.23.25,0s0,0,0,0a.09.09,0,0,0,0-.09.11.11,0,0,0-.12-.09l-.25.05.22-.33a.1.1,0,0,0,0-.14A.1.1,0,0,0,59.59,36.82Zm-2,.93Zm.44-.38-.15.22-.14,0,.05-.13Zm-.55-.19.11.24,0,.12-.09-.1Zm-.45.38.27,0,.09.1-.14,0Zm.11.57.15-.22.14,0,0,.13Zm.55.19-.11-.24,0-.13.09.11Zm.45-.38-.27,0-.09-.1.14,0Z"/><path class="cls-121" d="M81.61,154.73l-.34.5-.18,0,.32-.48a.1.1,0,0,0-.17-.11l-.44.65-.64.12.23-.33a.09.09,0,0,0,0-.13.1.1,0,0,0-.13,0l-.36.17.21-.61.71-.34a0,0,0,0,0,0,0,.1.1,0,0,0,0-.12.1.1,0,0,0-.14-.05l-.52.25.06-.17.54-.26,0,0a.11.11,0,0,0,0-.12.1.1,0,0,0-.14-.05l-.35.17.08-.23a.1.1,0,0,0-.06-.13.11.11,0,0,0-.14.06l-.08.23-.17-.35a.11.11,0,0,0-.14,0,.1.1,0,0,0,0,.14l.26.54-.06.18-.25-.53a.11.11,0,0,0-.19.09l.35.71-.22.61-.17-.35a.12.12,0,0,0-.22,0l0,.39-.42-.48,0-.79a.1.1,0,0,0-.09-.11.12.12,0,0,0-.12.1l0,.57-.12-.14,0-.6a.12.12,0,0,0-.1-.11.1.1,0,0,0-.11.1l0,.39-.16-.19a.12.12,0,0,0-.15,0,.11.11,0,0,0,0,.15l.16.19-.39,0a.12.12,0,0,0-.12.1.1.1,0,0,0,.1.11l.6,0,.12.14-.57,0a.12.12,0,0,0-.12.1.12.12,0,0,0,.1.11l.79.06.42.48-.4,0a.12.12,0,0,0-.11.09.11.11,0,0,0,0,.13l.33.22-.64.12-.65-.44a.1.1,0,0,0-.14,0,.1.1,0,0,0,0,.14l.48.33-.18,0-.5-.34a.1.1,0,0,0-.14,0,.11.11,0,0,0,0,.15l.32.22-.24,0a.1.1,0,0,0-.08.13.1.1,0,0,0,.12.08l.24-.05-.22.33a.1.1,0,0,0,0,.14.09.09,0,0,0,.12,0l0,0,.34-.5.18,0-.32.48a.11.11,0,0,0,0,.15.12.12,0,0,0,.13,0l0,0,.44-.65.64-.12-.23.32a.11.11,0,0,0,0,.14.11.11,0,0,0,.13,0l.36-.18-.21.61-.71.35a.1.1,0,0,0,0,.14.1.1,0,0,0,.14,0l.52-.25-.06.18-.54.26a.1.1,0,0,0-.05.14.11.11,0,0,0,.14.05l.35-.18-.08.24a.1.1,0,0,0,.07.13.1.1,0,0,0,.1,0l0,0,.08-.24.17.36a.11.11,0,0,0,.14.05l0,0a.11.11,0,0,0,0-.12l-.26-.55.06-.17.25.52a.11.11,0,0,0,.14,0l0,0a.1.1,0,0,0,0-.12l-.34-.71.21-.61.17.36a.12.12,0,0,0,.13.05l.06,0a.08.08,0,0,0,0-.07l0-.39.43.49-.06.78a.1.1,0,0,0,.1.11.07.07,0,0,0,.07,0,.1.1,0,0,0,0-.07l0-.58.12.14,0,.6a.09.09,0,0,0,.09.11l.08,0a.11.11,0,0,0,0-.08l0-.39.17.19a.1.1,0,0,0,.14,0,.1.1,0,0,0,0-.15l-.16-.19.4,0a.06.06,0,0,0,.07,0,.1.1,0,0,0,0-.07.1.1,0,0,0-.1-.11l-.6,0-.12-.14.58.05a.09.09,0,0,0,.07,0,.1.1,0,0,0,0-.07.1.1,0,0,0-.1-.11l-.78-.06-.43-.49.4,0,.08,0,0-.06a.1.1,0,0,0,0-.13l-.32-.23.63-.12.65.45a.12.12,0,0,0,.13,0l0,0a.11.11,0,0,0,0-.15l-.48-.32.18,0,.5.34a.11.11,0,0,0,.13,0l0,0a.11.11,0,0,0,0-.15l-.33-.22.25,0,0,0a.1.1,0,0,0,0-.1.1.1,0,0,0-.12-.08l-.25.05.22-.33a.1.1,0,1,0-.17-.12Zm-1.59.55-.15.22-.13,0,0-.13Zm-.55-.2.12.24,0,.13-.09-.1Zm-.44.39h.27l.08.11-.13,0Zm.11.57.15-.22.13,0,0,.13Zm.55.19-.12-.24.05-.13.09.11Zm.44-.38-.26,0-.09-.1.13,0Z"/><path class="cls-122" d="M66.83,107.34l-.34.5-.18,0,.33-.48a.11.11,0,0,0,0-.15.11.11,0,0,0-.15,0l-.44.65-.63.12.22-.32a.11.11,0,0,0,0-.14.11.11,0,0,0-.13,0l-.35.18.21-.61.71-.35h0a.1.1,0,0,0,0-.13.11.11,0,0,0-.14,0l-.52.26.06-.18.55-.26h0a.11.11,0,0,0,0-.13.11.11,0,0,0-.14-.05l-.36.17.08-.23a.1.1,0,0,0-.06-.13.1.1,0,0,0-.13.06l-.09.24L65.2,106a.11.11,0,0,0-.14,0,.11.11,0,0,0,0,.14l.27.55-.06.17-.26-.52a.09.09,0,0,0-.14,0,.1.1,0,0,0,0,.14l.34.71-.21.61-.17-.36a.1.1,0,0,0-.13,0,.11.11,0,0,0-.1.09l0,.4-.42-.49.06-.78a.12.12,0,0,0-.1-.12.1.1,0,0,0-.11.1l0,.58-.12-.14,0-.6a.1.1,0,0,0-.1-.11.1.1,0,0,0-.11.09l0,.4-.16-.19a.1.1,0,0,0-.15,0,.11.11,0,0,0,0,.14l.17.19-.4,0a.1.1,0,0,0-.11.1.1.1,0,0,0,.1.11l.6,0,.12.14-.58,0a.1.1,0,0,0-.11.1.1.1,0,0,0,.1.11l.78.06.42.49-.39,0a.1.1,0,0,0-.11.08.11.11,0,0,0,0,.13l.33.23-.63.12-.66-.45a.1.1,0,0,0-.14,0,.11.11,0,0,0,0,.15l.48.32-.18,0-.5-.34a.11.11,0,0,0-.15,0,.11.11,0,0,0,0,.15l.33.22-.25,0a.1.1,0,0,0-.08.12.1.1,0,0,0,.12.08l.25,0-.23.33a.11.11,0,0,0,0,.15.12.12,0,0,0,.13,0s0,0,0,0l.34-.5.18,0-.33.47a.11.11,0,0,0,0,.15.11.11,0,0,0,.13,0v0l.45-.65.63-.12-.22.33a.1.1,0,0,0,0,.13.11.11,0,0,0,.14,0l.35-.17-.21.61-.71.34a.11.11,0,0,0,0,.14.11.11,0,0,0,.14,0l.52-.25-.06.17-.54.26a.11.11,0,0,0-.05.14.11.11,0,0,0,.14,0l.36-.17-.08.23a.11.11,0,0,0,.06.14.12.12,0,0,0,.1,0s0,0,0-.05l.08-.23.18.35a.1.1,0,0,0,.14,0h0a.11.11,0,0,0,0-.13l-.27-.54.06-.18.26.53a.1.1,0,0,0,.14,0h0a.1.1,0,0,0,0-.13l-.34-.71.21-.61.18.36a.09.09,0,0,0,.12.05l.06,0a.1.1,0,0,0,0-.07l0-.4.42.49-.06.79a.12.12,0,0,0,.1.11.11.11,0,0,0,.08,0,.08.08,0,0,0,0-.07l0-.57.12.13,0,.6a.12.12,0,0,0,.1.12.09.09,0,0,0,.07,0,.1.1,0,0,0,0-.07l0-.39.16.18a.1.1,0,0,0,.15,0,.1.1,0,0,0,0-.14l-.16-.19.39,0a.11.11,0,0,0,.08,0,.08.08,0,0,0,0-.07.1.1,0,0,0-.09-.11l-.61,0-.12-.13.58,0a.11.11,0,0,0,.08,0,.08.08,0,0,0,0-.07.1.1,0,0,0-.09-.11l-.79-.06-.42-.48.39,0a.08.08,0,0,0,.08,0,.07.07,0,0,0,0-.06.1.1,0,0,0,0-.13l-.33-.22.64-.12.65.44a.09.09,0,0,0,.12,0,0,0,0,0,0,0,0,.1.1,0,0,0,0-.14l-.47-.33.18,0,.49.34a.1.1,0,0,0,.13,0l0,0a.1.1,0,0,0,0-.14l-.32-.22.24,0,.05,0a.13.13,0,0,0,0-.1.1.1,0,0,0-.12-.09l-.25.05.23-.33a.1.1,0,0,0,0-.14A.11.11,0,0,0,66.83,107.34Zm-1.58.55-.15.22-.14,0L65,108Zm-.55-.19.11.24,0,.13-.09-.11Zm-.45.38.27,0,.09.1-.14,0Zm.11.57.15-.22.14,0-.05.13Zm.55.19-.11-.23,0-.13.09.1Zm.45-.38-.27,0-.09-.1.14,0Z"/><path class="cls-123" d="M74.65,87.22l-.87.23-.23-.14.83-.22a.16.16,0,0,0,.11-.19.16.16,0,0,0-.19-.11l-1.13.3-.82-.47.56-.15A.15.15,0,0,0,73,86.3a.15.15,0,0,0-.11-.17L72.35,86l.83-.48,1.12.3h0a.17.17,0,0,0,.15-.12.15.15,0,0,0-.11-.18l-.83-.23.24-.13.86.23h0a.15.15,0,0,0,0-.3l-.57-.15.32-.18a.16.16,0,0,0,.06-.21.15.15,0,0,0-.21-.06l-.32.19.15-.57a.16.16,0,0,0-.3-.08l-.23.86L73.4,85l.22-.83a.16.16,0,0,0-.3-.08L73,85.24l-.83.47.15-.56a.15.15,0,0,0-.09-.18.14.14,0,0,0-.2,0l-.41.41v-1l.82-.82a.16.16,0,0,0-.22-.22l-.6.6v-.27l.63-.63a.15.15,0,0,0,0-.21.16.16,0,0,0-.22,0l-.41.41v-.37a.15.15,0,0,0-.15-.15.16.16,0,0,0-.16.15v.37l-.41-.41a.16.16,0,0,0-.22,0,.14.14,0,0,0,0,.21l.63.64V84l-.6-.61a.16.16,0,0,0-.22.22l.82.82v1L70.92,85a.14.14,0,0,0-.2,0,.15.15,0,0,0-.09.18l.15.56L70,85.23l-.3-1.12a.15.15,0,0,0-.19-.11.15.15,0,0,0-.1.19l.22.83-.24-.14L69.11,84a.15.15,0,0,0-.19-.11.16.16,0,0,0-.11.19l.16.56-.32-.18a.15.15,0,0,0-.21.06.16.16,0,0,0,0,.21l.32.18-.56.15a.16.16,0,0,0,0,.31h0l.86-.23.23.13-.82.23a.15.15,0,0,0-.11.19.16.16,0,0,0,.15.11h0l1.12-.3.83.48-.57.15a.16.16,0,0,0-.11.17.16.16,0,0,0,.11.17l.56.15-.82.47-1.12-.3a.16.16,0,0,0-.08.3l.82.22-.23.14-.86-.23a.15.15,0,0,0-.19.11.15.15,0,0,0,.11.18l.56.15-.32.19a.16.16,0,0,0,.08.29.11.11,0,0,0,.08,0l.32-.18-.15.57a.14.14,0,0,0,.11.18h0a.15.15,0,0,0,.14-.11l.24-.87.23-.13-.22.82a.15.15,0,0,0,.11.19h0a.16.16,0,0,0,.15-.12l.3-1.12.82-.48-.15.57a.16.16,0,0,0,.09.18.16.16,0,0,0,.09,0,.15.15,0,0,0,.11,0l.41-.41v1l-.82.82a.16.16,0,0,0,0,.22.17.17,0,0,0,.22,0l.6-.61v.27l-.63.63a.16.16,0,0,0,0,.22.15.15,0,0,0,.22,0l.41-.41v.36a.16.16,0,0,0,.16.16.16.16,0,0,0,.15-.16V89.3l.42.41a.14.14,0,0,0,.1.05.16.16,0,0,0,.11-.05.16.16,0,0,0,0-.22l-.63-.63v-.27l.61.61a.15.15,0,0,0,.11,0,.14.14,0,0,0,.1,0,.16.16,0,0,0,0-.22l-.82-.83v-1l.42.42a.13.13,0,0,0,.1,0,.17.17,0,0,0,.1,0,.16.16,0,0,0,.09-.18l-.15-.56.82.47.3,1.12a.16.16,0,0,0,.15.12h0a.15.15,0,0,0,.11-.19l-.22-.82.23.14.23.86a.16.16,0,0,0,.15.11h0a.15.15,0,0,0,.11-.18L74,87.93l.32.19.07,0a.16.16,0,0,0,.14-.08.15.15,0,0,0-.06-.21l-.32-.18.57-.16a.15.15,0,1,0-.08-.29Zm-2.3-.92-.38.1-.17-.1.17-.1Zm-.43-.75-.1.38-.18.1v-.2Zm-.86,0,.28.28V86l-.18-.1Zm-.43.75.38-.1.17.1-.18.1Zm.43.74.1-.37.17-.1v.2Zm.86,0-.28-.27v-.2l.18.1Z"/><path class="cls-124" d="M48.64,99.89l-.65.61h-.27l.62-.59a.14.14,0,0,0,0-.21.14.14,0,0,0-.21,0l-.85.8-1,0,.43-.4a.19.19,0,0,0-.17-.3L46,99.9l.5-.81,1.12-.28h0a.16.16,0,0,0,.08-.17.16.16,0,0,0-.19-.12l-.83.2.14-.23.87-.21h0a.14.14,0,0,0,.07-.17.15.15,0,0,0-.18-.12l-.57.14.19-.31a.15.15,0,0,0-.05-.21.14.14,0,0,0-.21,0l-.19.31-.14-.57a.15.15,0,0,0-.19-.11.15.15,0,0,0-.11.18l.21.87-.14.23-.2-.83a.16.16,0,0,0-.19-.11.15.15,0,0,0-.11.18l.27,1.13-.49.82-.14-.57a.15.15,0,0,0-.17-.12.16.16,0,0,0-.17.11l-.16.56-.46-.84L45,97.77a.15.15,0,0,0-.1-.19.16.16,0,0,0-.2.1l-.24.82-.12-.24.25-.85a.16.16,0,0,0-.11-.19.15.15,0,0,0-.19.1l-.16.56L44,97.56a.15.15,0,0,0-.21-.06.16.16,0,0,0-.06.21l.18.32-.56-.17a.16.16,0,0,0-.19.11.15.15,0,0,0,.1.19l.86.25.13.24-.82-.24a.16.16,0,0,0-.2.1.16.16,0,0,0,.11.19l1.12.33.45.84-.56-.17a.16.16,0,0,0-.18.09.14.14,0,0,0,0,.2l.4.42-1,0-.8-.84a.15.15,0,0,0-.21,0,.15.15,0,0,0,0,.22l.59.62h-.27l-.62-.64a.14.14,0,0,0-.21,0,.15.15,0,0,0,0,.22l.4.42h-.36a.16.16,0,0,0-.16.15.15.15,0,0,0,.15.16h.37l-.43.4a.16.16,0,0,0,0,.22.15.15,0,0,0,.18,0l0,0,.64-.62h.27l-.62.59a.15.15,0,0,0,0,.21.13.13,0,0,0,.18,0l0,0,.84-.8,1,0-.42.4a.14.14,0,0,0,0,.2.15.15,0,0,0,.18.1l.56-.14-.49.81-1.13.28a.15.15,0,0,0,.07.3l.83-.2-.14.23-.87.21a.15.15,0,1,0,.08.29l.56-.13-.19.31a.16.16,0,0,0,.05.21.18.18,0,0,0,.16,0l0-.06.2-.31.13.57a.16.16,0,0,0,.19.11l0,0a.14.14,0,0,0,.07-.17l-.21-.87.14-.23.2.84a.16.16,0,0,0,.19.11h0a.16.16,0,0,0,.07-.18l-.27-1.13.5-.81.13.57a.16.16,0,0,0,.17.11.17.17,0,0,0,.1,0,.16.16,0,0,0,.07-.09l.16-.56.46.83-.33,1.12a.16.16,0,0,0,.11.19.14.14,0,0,0,.11,0,.12.12,0,0,0,.08-.09l.24-.82.13.24-.25.86a.15.15,0,0,0,.1.19.17.17,0,0,0,.12,0,.16.16,0,0,0,.07-.09l.16-.56.18.32a.14.14,0,0,0,.21.06.15.15,0,0,0,.06-.2l-.18-.33.57.17a.14.14,0,0,0,.11,0s.06-.05.08-.09a.16.16,0,0,0-.11-.19l-.85-.25-.13-.24.82.24a.11.11,0,0,0,.11,0,.14.14,0,0,0,.08-.09.15.15,0,0,0-.11-.19l-1.11-.33L46,101.3l.56.17a.24.24,0,0,0,.12,0,.27.27,0,0,0,.07-.08.17.17,0,0,0,0-.2l-.4-.42,1,0,.8.84a.13.13,0,0,0,.18,0,.05.05,0,0,0,0,0,.16.16,0,0,0,0-.22l-.59-.62H48l.62.64a.13.13,0,0,0,.18,0l0,0a.16.16,0,0,0,0-.22l-.4-.42h.37l.07,0a.14.14,0,0,0,.08-.13.15.15,0,0,0-.15-.16h-.37l.43-.4a.16.16,0,0,0,0-.22A.15.15,0,0,0,48.64,99.89Zm-3.22.7Zm.76-.41-.28.27h-.2l.1-.18Zm-.73-.45.09.38-.11.18-.09-.18Zm-.76.42.38.11.09.17H45Zm0,.86.28-.27h.2l-.1.17Zm.73.44-.09-.38.11-.17.09.18Zm.76-.41-.38-.11-.09-.17h.2Z"/><path class="cls-125" d="M78.9,53.87l-.65.62H78l.62-.59a.15.15,0,0,0,0-.22.16.16,0,0,0-.22,0l-.84.8-1,0L77,54a.17.17,0,0,0,0-.2.16.16,0,0,0-.18-.09l-.57.14.5-.82,1.13-.27h0a.17.17,0,0,0,.08-.18.15.15,0,0,0-.19-.11l-.82.2.14-.23.86-.21h0a.18.18,0,0,0,.08-.18A.16.16,0,0,0,78,52l-.57.14.19-.31a.14.14,0,0,0,0-.21.14.14,0,0,0-.21.05l-.19.31L77,51.37a.15.15,0,0,0-.3.07l.21.87-.14.23-.2-.83a.15.15,0,0,0-.19-.11.15.15,0,0,0-.11.18l.28,1.13-.5.82-.14-.57a.15.15,0,0,0-.16-.12.16.16,0,0,0-.17.11l-.17.56-.45-.84.32-1.11a.15.15,0,1,0-.29-.09l-.24.82-.13-.24.25-.85a.15.15,0,0,0-.1-.19.16.16,0,0,0-.2.1l-.16.56-.17-.32a.15.15,0,0,0-.21-.06.14.14,0,0,0-.06.21l.17.32-.56-.17a.16.16,0,0,0-.19.11.15.15,0,0,0,.1.19l.86.25.13.24-.82-.24a.15.15,0,0,0-.09.29l1.12.33.46.84-.57-.16a.14.14,0,0,0-.18.08.14.14,0,0,0,0,.2l.4.42-1,0-.8-.84a.14.14,0,0,0-.21,0,.14.14,0,0,0,0,.21l.59.62h-.27l-.62-.64a.14.14,0,0,0-.21,0,.14.14,0,0,0,0,.21l.4.42h-.36a.14.14,0,0,0-.16.15.15.15,0,0,0,.15.15h.37l-.43.41a.14.14,0,0,0,0,.21.13.13,0,0,0,.18,0l0,0,.64-.62h.27l-.62.59a.16.16,0,0,0,0,.22.16.16,0,0,0,.18,0l0,0,.84-.8,1,0-.42.41a.15.15,0,0,0,0,.2.15.15,0,0,0,.18.09l.56-.13-.49.81-1.13.27a.15.15,0,0,0-.11.19.15.15,0,0,0,.18.11l.83-.2-.14.23-.86.21a.15.15,0,0,0-.12.19.16.16,0,0,0,.19.11l.56-.14-.19.32a.15.15,0,0,0,.06.21.14.14,0,0,0,.15,0l.06-.05.19-.32.14.57a.15.15,0,0,0,.18.11h0a.16.16,0,0,0,.08-.17l-.21-.87.14-.23.2.83a.15.15,0,0,0,.18.12l0,0a.15.15,0,0,0,.08-.17l-.28-1.13.5-.82.14.57a.15.15,0,0,0,.16.12.16.16,0,0,0,.1,0,.13.13,0,0,0,.07-.09l.17-.56.45.84-.32,1.11a.15.15,0,0,0,.1.19.17.17,0,0,0,.12,0,.16.16,0,0,0,.07-.09l.24-.82.13.24-.25.85a.15.15,0,0,0,.1.19.16.16,0,0,0,.12,0,.18.18,0,0,0,.08-.09l.16-.56.17.32a.16.16,0,0,0,.21.06.14.14,0,0,0,.06-.21l-.17-.32.56.16a.17.17,0,0,0,.12,0A.16.16,0,0,0,78,57.2a.15.15,0,0,0-.1-.19l-.86-.25-.13-.24.82.24a.16.16,0,0,0,.12,0,.16.16,0,0,0,.07-.09.16.16,0,0,0-.1-.2l-1.12-.32-.45-.84.56.17a.14.14,0,0,0,.11,0,.12.12,0,0,0,.07-.07.14.14,0,0,0,0-.2l-.4-.42,1,0,.8.84a.17.17,0,0,0,.19,0l0,0a.16.16,0,0,0,0-.22L78,54.79h.27l.61.64a.17.17,0,0,0,.19,0l0,0a.16.16,0,0,0,0-.22l-.4-.42h.36l.08,0a.18.18,0,0,0,.08-.13.16.16,0,0,0-.15-.16h-.37l.42-.41a.14.14,0,0,0,0-.21A.17.17,0,0,0,78.9,53.87Zm-2.46.3-.28.27H76l.11-.18Zm-.73-.45.09.38-.1.17-.1-.18Zm-.75.41.37.11.1.18h-.21Zm0,.86.29-.27h.2l-.11.17Zm.74.45-.09-.38.1-.17.1.18Zm.75-.41-.37-.11-.1-.18h.21Z"/><path class="cls-126" d="M105.32,174l-.64.61h-.27L105,174a.16.16,0,0,0-.22-.23l-.84.8-1,0,.42-.4a.15.15,0,0,0,0-.2.16.16,0,0,0-.18-.1l-.56.14.49-.81,1.13-.28h0a.14.14,0,0,0,.07-.17.15.15,0,0,0-.18-.12l-.83.2.14-.23.87-.21h0a.15.15,0,0,0,.08-.17.15.15,0,0,0-.19-.11l-.56.13.19-.31a.16.16,0,0,0,0-.21.15.15,0,0,0-.21,0l-.2.31-.13-.57a.16.16,0,0,0-.19-.11.15.15,0,0,0-.11.19l.21.87-.14.23-.2-.84a.16.16,0,0,0-.19-.11.15.15,0,0,0-.11.19l.27,1.13-.49.81-.14-.57a.19.19,0,0,0-.34,0l-.16.56-.46-.83.33-1.12a.16.16,0,0,0-.11-.19.16.16,0,0,0-.19.11l-.24.81-.13-.23.26-.86a.16.16,0,0,0-.11-.19.16.16,0,0,0-.19.11l-.16.55-.18-.32a.16.16,0,0,0-.21-.06.16.16,0,0,0-.06.21l.18.32L100,172a.15.15,0,0,0-.19.1.14.14,0,0,0,.1.19l.86.26.13.23-.83-.24a.16.16,0,1,0-.08.3l1.11.33.46.83-.56-.16a.14.14,0,0,0-.18.08.15.15,0,0,0,0,.2l.41.42-1,0-.8-.84a.16.16,0,0,0-.22,0,.14.14,0,0,0,0,.21l.59.62h-.27l-.62-.65a.14.14,0,0,0-.21,0,.14.14,0,0,0,0,.21l.4.43h-.36a.14.14,0,0,0-.16.15.15.15,0,0,0,.15.15h.37l-.43.41a.16.16,0,0,0,0,.22.14.14,0,0,0,.18,0l0,0,.64-.61h.27l-.62.59a.16.16,0,0,0,0,.22.15.15,0,0,0,.18,0l0,0,.84-.81.95,0-.42.4a.14.14,0,0,0,0,.2.15.15,0,0,0,.18.09l.56-.13-.49.81-1.13.27a.16.16,0,0,0-.11.19.15.15,0,0,0,.18.11l.83-.2-.14.23-.87.21a.16.16,0,1,0,.08.3l.56-.14-.19.32a.16.16,0,0,0,0,.21.15.15,0,0,0,.16,0l.06-.05.19-.32.13.57a.16.16,0,0,0,.19.11h0a.14.14,0,0,0,.07-.17l-.21-.87.14-.23.21.83a.16.16,0,0,0,.18.12l0,0a.16.16,0,0,0,.08-.17l-.28-1.13.5-.82.14.57a.14.14,0,0,0,.16.12.16.16,0,0,0,.1,0,.16.16,0,0,0,.07-.09l.17-.56.45.84-.32,1.11a.15.15,0,0,0,.1.19.17.17,0,0,0,.12,0,.16.16,0,0,0,.07-.09l.24-.82.13.24-.25.85a.15.15,0,0,0,.1.19.16.16,0,0,0,.12,0,.16.16,0,0,0,.07-.09l.17-.56.17.32a.16.16,0,0,0,.21.06.15.15,0,0,0,.06-.21l-.17-.32.56.16a.17.17,0,0,0,.12,0,.16.16,0,0,0,.07-.09.15.15,0,0,0-.1-.19l-.86-.25-.13-.24.82.24a.17.17,0,0,0,.12,0,.15.15,0,0,0,.07-.1.15.15,0,0,0-.1-.19l-1.12-.32-.46-.84.57.16a.11.11,0,0,0,.11,0,.16.16,0,0,0,.07-.07.15.15,0,0,0,0-.2l-.4-.42,1,0,.8.84a.17.17,0,0,0,.19,0l0,0a.15.15,0,0,0,0-.21l-.59-.62h.27l.61.64a.17.17,0,0,0,.19,0l0,0a.14.14,0,0,0,0-.21l-.4-.42h.37a.11.11,0,0,0,.08,0,.22.22,0,0,0,.08-.14.15.15,0,0,0-.15-.15h-.37l.42-.41a.16.16,0,0,0,0-.22A.18.18,0,0,0,105.32,174Zm-3.21.7Zm.76-.41-.29.27h-.2l.11-.18Zm-.74-.45.09.38-.1.18-.1-.18Zm-.75.42.37.11.1.17h-.2Zm0,.86.28-.27h.2l-.11.17Zm.73.44-.09-.38.1-.17.1.18Zm.76-.41-.38-.11-.1-.17h.21Z"/><polygon class="cls-127" points="66.34 0 70.51 8.45 79.83 9.8 73.09 16.37 74.68 25.65 66.34 21.27 58.01 25.65 59.6 16.37 52.86 9.8 62.18 8.45 66.34 0"/></g></g></svg>